<svg width="24" height="24" viewBox="0 0 24 24" fill="none" xmlns="http://www.w3.org/2000/svg">
<path d="M2.42188 11.9656V20.5073C2.42188 21.0608 2.87137 21.5089 3.42479 21.5073L8.75732 21.4918L15.102 21.4641L15.1665 21.0215C15.1942 20.7817 15.3233 20.3852 15.434 20.1454C15.6461 19.712 16.4392 18.8359 16.6144 18.8359C16.6789 18.8359 16.725 19.3339 16.7343 20.1454L16.7619 21.4641H19.1135H20.468C21.0192 21.4641 21.4664 21.0182 21.468 20.467L21.4928 11.9379L21.5093 3.42285C21.5103 2.86981 21.0623 2.42092 20.5093 2.42092H11.9665H3.42187C2.86959 2.42092 2.42188 2.86863 2.42188 3.42092V11.9656ZM10.3712 5.57481L10.3988 7.1702L11.1642 7.19786L11.9204 7.22553V5.60247V3.98864L15.9135 4.00709L19.8974 4.03475V7.58518V11.1356L17.1031 11.1633L14.3089 11.1817L14.3366 11.9471L14.3642 12.7033L17.1308 12.7494L19.8974 12.7956V16.346V19.8964H19.1135H18.3297L18.302 18.3103L18.2835 16.7149H18.0253C17.6288 16.7149 16.725 16.9731 16.1717 17.2405C15.4432 17.5909 14.5026 18.5224 14.0876 19.297L13.7556 19.9518L12.8611 19.9241L11.9665 19.8964L11.9389 18.3103L11.9204 16.7149H11.1366H10.3527V18.3287V19.9425L7.19882 19.9241L4.03571 19.8964L4.00804 16.3183L3.9896 12.7494H7.17115H10.3527V13.5333V14.3172H11.1366H11.9204V11.9195V9.52178H11.1366H10.3527V10.3518V11.1817L7.19882 11.1633L4.03571 11.1356L4.00804 7.55752L3.9896 3.98864H7.17115H10.3527L10.3712 5.57481Z" fill="#04B7E0"/>
</svg>
