<svg width="24" height="24" viewBox="0 0 24 24" fill="none" xmlns="http://www.w3.org/2000/svg">
<path d="M2.42188 11.9653V20.5071C2.42188 21.0605 2.87137 21.5087 3.42479 21.5071L8.75732 21.4916L15.102 21.4639L15.1665 21.0212C15.1942 20.7815 15.3233 20.3849 15.434 20.1452C15.6461 19.7117 16.4392 18.8357 16.6144 18.8357C16.6789 18.8357 16.725 19.3336 16.7343 20.1452L16.7619 21.4639H19.1135H20.468C21.0192 21.4639 21.4664 21.018 21.468 20.4668L21.4928 11.9377L21.5093 3.42261C21.5103 2.86957 21.0623 2.42067 20.5093 2.42067H11.9665H3.42187C2.86959 2.42067 2.42188 2.86839 2.42188 3.42067V11.9653ZM10.3712 5.57456L10.3988 7.16995L11.1642 7.19762L11.9204 7.22528V5.60223V3.9884L15.9135 4.00684L19.8974 4.03451V7.58494V11.1354L17.1031 11.163L14.3089 11.1815L14.3366 11.9469L14.3642 12.7031L17.1308 12.7492L19.8974 12.7953V16.3457V19.8962H19.1135H18.3297L18.302 18.31L18.2835 16.7146H18.0253C17.6288 16.7146 16.725 16.9728 16.1717 17.2403C15.4432 17.5907 14.5026 18.5221 14.0876 19.2968L13.7556 19.9515L12.8611 19.9238L11.9665 19.8962L11.9389 18.31L11.9204 16.7146H11.1366H10.3527V18.3285V19.9423L7.19882 19.9238L4.03571 19.8962L4.00804 16.3181L3.9896 12.7492H7.17115H10.3527V13.5331V14.3169H11.1366H11.9204V11.9192V9.52154H11.1366H10.3527V10.3515V11.1815L7.19882 11.163L4.03571 11.1354L4.00804 7.55727L3.9896 3.9884H7.17115H10.3527L10.3712 5.57456Z" fill="#04B7E0"/>
</svg>
