<svg width="32" height="32" viewBox="0 0 32 32" fill="none" xmlns="http://www.w3.org/2000/svg">
<path d="M2.66797 26.6667H5.33464M5.33464 26.6667H18.668M5.33464 26.6667V8.26693C5.33464 6.77345 5.33464 6.02616 5.62528 5.45573C5.88095 4.95396 6.2886 4.54631 6.79036 4.29065C7.3608 4 8.10809 4 9.60156 4H14.4016C15.895 4 16.6407 4 17.2112 4.29065C17.7129 4.54631 18.1219 4.95396 18.3776 5.45573C18.668 6.0256 18.668 6.77199 18.668 8.26255V16M18.668 26.6667H26.668M18.668 26.6667V16M26.668 26.6667H29.3346M26.668 26.6667V16C26.668 14.7575 26.6678 14.1365 26.4648 13.6465C26.1942 12.9931 25.6755 12.4736 25.0221 12.203C24.5321 12 23.9101 12 22.6676 12C21.4251 12 20.8039 12 20.3138 12.203C19.6604 12.4736 19.1416 12.9931 18.871 13.6465C18.668 14.1365 18.668 14.7575 18.668 16M9.33464 13.3333H14.668M9.33464 9.33333H14.668" stroke="#212121" stroke-width="2.5" stroke-linecap="round" stroke-linejoin="round"/>
</svg>
