<svg width="40" height="40" viewBox="0 0 40 40" fill="none" xmlns="http://www.w3.org/2000/svg">
<rect width="40" height="40" rx="20" fill="#04B7E0"/>
<path d="M20 17.7998V27.9998M20 17.7998C20 16.1196 20 15.2799 20.327 14.6382C20.6146 14.0737 21.0732 13.6146 21.6377 13.327C22.2794 13 23.1196 13 24.7998 13H27.3998C27.9599 13 28.2401 13 28.454 13.109C28.6422 13.2049 28.7948 13.3577 28.8906 13.5459C28.9996 13.7598 29 14.04 29 14.6001V23.4001C29 23.9601 28.9996 24.2398 28.8906 24.4537C28.7948 24.6419 28.6425 24.7952 28.4543 24.8911C28.2406 25 27.961 25 27.402 25H24.5693C23.6301 25 23.1597 25 22.7334 25.1295C22.356 25.2441 22.0057 25.4317 21.701 25.6821C21.3568 25.965 21.096 26.3557 20.575 27.1372L20 27.9998M20 17.7998C20 16.1196 19.9998 15.2799 19.6729 14.6382C19.3852 14.0737 18.9263 13.6146 18.3618 13.327C17.72 13 16.8798 13 15.1996 13H12.5996C12.0396 13 11.7598 13 11.5459 13.109C11.3577 13.2049 11.2049 13.3577 11.109 13.5459C11 13.7598 11 14.04 11 14.6001V23.4001C11 23.9601 11 24.2398 11.109 24.4537C11.2049 24.6419 11.3577 24.7952 11.5459 24.8911C11.7596 25 12.039 25 12.598 25H15.4307C16.3699 25 16.8394 25 17.2657 25.1295C17.6431 25.2441 17.9951 25.4317 18.2998 25.6821C18.6426 25.9638 18.9017 26.3526 19.4185 27.1277L20 27.9998" stroke="white" stroke-width="2" stroke-linecap="round" stroke-linejoin="round"/>
</svg>
