<svg width="32" height="32" viewBox="0 0 32 32" fill="none" xmlns="http://www.w3.org/2000/svg">
<path d="M26.668 4H5.33464C4.62739 4 3.94911 4.28095 3.44902 4.78105C2.94892 5.28115 2.66797 5.95942 2.66797 6.66667V9.33333C2.67078 9.7987 2.79533 10.2552 3.02923 10.6576C3.26314 11.0599 3.59827 11.394 4.0013 11.6267V25.3333C4.0013 26.0406 4.28225 26.7189 4.78235 27.219C5.28245 27.719 5.96072 28 6.66797 28H25.3346C26.0419 28 26.7202 27.719 27.2203 27.219C27.7203 26.7189 28.0013 26.0406 28.0013 25.3333V11.6267C28.4043 11.394 28.7395 11.0599 28.9734 10.6576C29.2073 10.2552 29.3318 9.7987 29.3346 9.33333V6.66667C29.3346 5.95942 29.0537 5.28115 28.5536 4.78105C28.0535 4.28095 27.3752 4 26.668 4ZM5.33464 6.66667H26.668V9.33333H5.33464V6.66667ZM6.66797 25.3333V12H25.3346V25.3333H6.66797Z" fill="#212121"/>
<path d="M10.668 14.6665H21.3346V17.3332H10.668V14.6665Z" fill="#212121"/>
</svg>
