<svg width="16" height="16" viewBox="0 0 16 16" fill="none" xmlns="http://www.w3.org/2000/svg">
<path d="M13.8467 6.76984L12.9347 4.03384C12.8024 3.63549 12.5479 3.28897 12.2074 3.04351C11.867 2.79805 11.4578 2.66613 11.038 2.6665H4.95936C4.53962 2.66613 4.13044 2.79805 3.78995 3.04351C3.44947 3.28897 3.195 3.63549 3.0627 4.03384L2.1507 6.76984C1.90818 6.87131 1.70107 7.04222 1.55541 7.26107C1.40975 7.47992 1.33203 7.73694 1.33203 7.99984V11.3332C1.33203 11.8252 1.60136 12.2505 1.9987 12.4818V13.9998C1.9987 14.1766 2.06894 14.3462 2.19396 14.4712C2.31898 14.5963 2.48855 14.6665 2.66536 14.6665H3.33203C3.50884 14.6665 3.67841 14.5963 3.80344 14.4712C3.92846 14.3462 3.9987 14.1766 3.9987 13.9998V12.6665H11.9987V13.9998C11.9987 14.1766 12.0689 14.3462 12.194 14.4712C12.319 14.5963 12.4886 14.6665 12.6654 14.6665H13.332C13.5088 14.6665 13.6784 14.5963 13.8034 14.4712C13.9285 14.3462 13.9987 14.1766 13.9987 13.9998V12.4818C14.201 12.3658 14.3691 12.1986 14.4861 11.9969C14.6032 11.7953 14.665 11.5663 14.6654 11.3332V7.99984C14.6654 7.73694 14.5876 7.47992 14.442 7.26107C14.2963 7.04222 14.0892 6.87131 13.8467 6.76984ZM4.95936 3.99984H11.0374C11.3247 3.99984 11.5794 4.1825 11.67 4.45584L12.4074 6.6665H3.59003L4.3267 4.45584C4.37093 4.32303 4.45584 4.20752 4.5694 4.12568C4.68295 4.04383 4.81939 3.9998 4.95936 3.99984ZM3.66536 10.6665C3.534 10.6665 3.40393 10.6405 3.28258 10.5902C3.16123 10.5399 3.05098 10.4662 2.95812 10.3733C2.86526 10.2804 2.79161 10.1701 2.74138 10.0487C2.69115 9.92729 2.66532 9.7972 2.66536 9.66584C2.66541 9.53447 2.69133 9.4044 2.74164 9.28305C2.79195 9.1617 2.86567 9.05145 2.95859 8.95859C3.05151 8.86573 3.16181 8.79209 3.28319 8.74186C3.40458 8.69163 3.53467 8.66579 3.66603 8.66584C3.93134 8.66593 4.18574 8.7714 4.37328 8.95906C4.56081 9.14673 4.66612 9.4012 4.66603 9.6665C4.66594 9.93181 4.56047 10.1862 4.3728 10.3737C4.18514 10.5613 3.93067 10.6666 3.66536 10.6665ZM12.332 10.6665C12.2007 10.6665 12.0706 10.6405 11.9492 10.5902C11.8279 10.5399 11.7176 10.4662 11.6248 10.3733C11.5319 10.2804 11.4583 10.1701 11.408 10.0487C11.3578 9.92729 11.332 9.7972 11.332 9.66584C11.3321 9.53447 11.358 9.4044 11.4083 9.28305C11.4586 9.1617 11.5323 9.05145 11.6253 8.95859C11.7182 8.86573 11.8285 8.79209 11.9499 8.74186C12.0712 8.69163 12.2013 8.66579 12.3327 8.66584C12.598 8.66593 12.8524 8.7714 13.0399 8.95906C13.2275 9.14673 13.3328 9.4012 13.3327 9.6665C13.3326 9.93181 13.2271 10.1862 13.0395 10.3737C12.8518 10.5613 12.5973 10.6666 12.332 10.6665Z" fill="#818181"/>
</svg>
