<svg width="16" height="16" viewBox="0 0 16 16" fill="none" xmlns="http://www.w3.org/2000/svg">
<path d="M13.8467 6.7713L12.9347 4.0353C12.8024 3.63696 12.5479 3.29044 12.2074 3.04497C11.867 2.79951 11.4578 2.6676 11.038 2.66797H4.95936C4.53962 2.6676 4.13044 2.79951 3.78995 3.04497C3.44947 3.29044 3.195 3.63696 3.0627 4.0353L2.1507 6.7713C1.90818 6.87278 1.70107 7.04368 1.55541 7.26253C1.40975 7.48138 1.33203 7.73841 1.33203 8.0013V11.3346C1.33203 11.8266 1.60136 12.252 1.9987 12.4833V14.0013C1.9987 14.1781 2.06894 14.3477 2.19396 14.4727C2.31898 14.5977 2.48855 14.668 2.66536 14.668H3.33203C3.50884 14.668 3.67841 14.5977 3.80344 14.4727C3.92846 14.3477 3.9987 14.1781 3.9987 14.0013V12.668H11.9987V14.0013C11.9987 14.1781 12.0689 14.3477 12.194 14.4727C12.319 14.5977 12.4886 14.668 12.6654 14.668H13.332C13.5088 14.668 13.6784 14.5977 13.8034 14.4727C13.9285 14.3477 13.9987 14.1781 13.9987 14.0013V12.4833C14.201 12.3673 14.3691 12.2001 14.4861 11.9984C14.6032 11.7967 14.665 11.5678 14.6654 11.3346V8.0013C14.6654 7.73841 14.5876 7.48138 14.442 7.26253C14.2963 7.04368 14.0892 6.87278 13.8467 6.7713ZM4.95936 4.0013H11.0374C11.3247 4.0013 11.5794 4.18397 11.67 4.4573L12.4074 6.66797H3.59003L4.3267 4.4573C4.37093 4.3245 4.45584 4.20899 4.5694 4.12714C4.68295 4.0453 4.81939 4.00127 4.95936 4.0013ZM3.66536 10.668C3.534 10.6679 3.40393 10.642 3.28258 10.5917C3.16123 10.5414 3.05098 10.4677 2.95812 10.3747C2.86526 10.2818 2.79161 10.1715 2.74138 10.0501C2.69115 9.92876 2.66532 9.79867 2.66536 9.6673C2.66541 9.53594 2.69133 9.40587 2.74164 9.28452C2.79195 9.16317 2.86567 9.05292 2.95859 8.96006C3.05151 8.8672 3.16181 8.79355 3.28319 8.74332C3.40458 8.69309 3.53467 8.66726 3.66603 8.6673C3.93134 8.66739 4.18574 8.77287 4.37328 8.96053C4.56081 9.14819 4.66612 9.40266 4.66603 9.66797C4.66594 9.93327 4.56047 10.1877 4.3728 10.3752C4.18514 10.5628 3.93067 10.6681 3.66536 10.668ZM12.332 10.668C12.2007 10.6679 12.0706 10.642 11.9492 10.5917C11.8279 10.5414 11.7176 10.4677 11.6248 10.3747C11.5319 10.2818 11.4583 10.1715 11.408 10.0501C11.3578 9.92876 11.332 9.79867 11.332 9.6673C11.3321 9.53594 11.358 9.40587 11.4083 9.28452C11.4586 9.16317 11.5323 9.05292 11.6253 8.96006C11.7182 8.8672 11.8285 8.79355 11.9499 8.74332C12.0712 8.69309 12.2013 8.66726 12.3327 8.6673C12.598 8.66739 12.8524 8.77287 13.0399 8.96053C13.2275 9.14819 13.3328 9.40266 13.3327 9.66797C13.3326 9.93327 13.2271 10.1877 13.0395 10.3752C12.8518 10.5628 12.5973 10.6681 12.332 10.668Z" fill="#818181"/>
</svg>
