<svg width="32" height="32" viewBox="0 0 32 32" fill="none" xmlns="http://www.w3.org/2000/svg">
<path d="M20 12.0002L14.6667 17.3335L12 14.6668M9.4981 24.9351L7.46615 26.5606C6.35658 27.4483 5.80153 27.8923 5.33464 27.8928C4.92858 27.8932 4.54459 27.7086 4.29128 27.3912C4 27.0263 4 26.316 4 24.8951V9.60042C4 8.10695 4 7.35966 4.29065 6.78923C4.54631 6.28746 4.95396 5.87981 5.45573 5.62415C6.02616 5.3335 6.77345 5.3335 8.26693 5.3335H23.7336C25.2271 5.3335 25.9734 5.3335 26.5438 5.62415C27.0456 5.87981 27.454 6.28746 27.7096 6.78923C28 7.3591 28 8.10549 28 9.59604V19.7383C28 21.2288 28 21.9741 27.7096 22.544C27.454 23.0458 27.0458 23.4541 26.544 23.7098C25.9742 24.0002 25.2287 24.0002 23.7381 24.0002H12.1634C11.6087 24.0002 11.331 24.0002 11.0658 24.0546C10.8304 24.1029 10.6029 24.1825 10.3889 24.2918C10.1487 24.4146 9.93285 24.5872 9.50296 24.9311L9.4981 24.9351Z" stroke="#212121" stroke-width="2.5" stroke-linecap="round" stroke-linejoin="round"/>
</svg>
