<svg width="40" height="40" viewBox="0 0 40 40" fill="none" xmlns="http://www.w3.org/2000/svg">
<rect x="0.5" y="0.5" width="39" height="39" rx="19.5" fill="#D0D0D0" fill-opacity="0.5"/>
<rect x="0.5" y="0.5" width="39" height="39" rx="19.5" stroke="#D0D0D0"/>
<path d="M17 19V28M17 19H12.5996C12.0396 19 11.7598 19 11.5459 19.109C11.3577 19.2049 11.2049 19.3577 11.109 19.5459C11 19.7598 11 20.04 11 20.6001V28H17M17 19V13.6001C17 13.04 17 12.7598 17.109 12.5459C17.2049 12.3577 17.3577 12.2049 17.5459 12.109C17.7598 12 18.0396 12 18.5996 12H21.3996C21.9597 12 22.2403 12 22.4542 12.109C22.6423 12.2049 22.7948 12.3577 22.8906 12.5459C22.9996 12.7598 23 13.04 23 13.6001V16M17 28H23M23 28L29 28.0001V17.6001C29 17.04 28.9996 16.7598 28.8906 16.5459C28.7948 16.3577 28.6429 16.2049 28.4548 16.109C28.2409 16 27.9601 16 27.4 16H23M23 28V16" stroke="white" stroke-width="2" stroke-linecap="round" stroke-linejoin="round"/>
</svg>
