<svg width="48" height="48" viewBox="0 0 48 48" fill="none" xmlns="http://www.w3.org/2000/svg">
<rect x="0.5" y="0.5" width="47" height="47" rx="23.5" fill="#D0D0D0" fill-opacity="0.5"/>
<rect x="0.5" y="0.5" width="47" height="47" rx="23.5" stroke="#D0D0D0"/>
<path d="M20 22.6666V34.6666M20 22.6666H14.1328C13.3861 22.6666 13.0131 22.6666 12.7279 22.8119C12.477 22.9397 12.2732 23.1436 12.1453 23.3944C12 23.6797 12 24.0533 12 24.8V34.6666H20M20 22.6666V15.4667C20 14.72 20 14.3463 20.1453 14.0611C20.2732 13.8102 20.477 13.6064 20.7279 13.4786C21.0131 13.3333 21.3861 13.3333 22.1328 13.3333H25.8661C26.6129 13.3333 26.987 13.3333 27.2723 13.4786C27.5231 13.6064 27.7263 13.8102 27.8542 14.0611C27.9995 14.3463 28 14.72 28 15.4667V18.6666M20 34.6666H28M28 34.6666L36 34.6667V20.8C36 20.0533 35.9995 19.6797 35.8542 19.3944C35.7263 19.1436 35.5239 18.9397 35.273 18.8119C34.9878 18.6666 34.6134 18.6666 33.8667 18.6666H28M28 34.6666V18.6666" stroke="white" stroke-width="2.5" stroke-linecap="round" stroke-linejoin="round"/>
</svg>
