<svg width="16" height="17" viewBox="0 0 16 17" fill="none" xmlns="http://www.w3.org/2000/svg">
<path d="M7.66667 10.5007C7.11438 10.5007 6.66667 10.0529 6.66667 9.50065C6.66667 8.94837 7.11438 8.50065 7.66667 8.50065M2 11.0341V5.96745C2 5.22071 2 4.84706 2.14532 4.56185C2.27316 4.31097 2.47698 4.10714 2.72786 3.97931C3.01308 3.83398 3.38673 3.83398 4.13346 3.83398H11.8668C12.6135 3.83398 12.9864 3.83398 13.2716 3.97931C13.5225 4.10714 13.727 4.31097 13.8548 4.56185C14 4.84679 14 5.21998 14 5.96526V11.0364C14 11.7816 14 12.1543 13.8548 12.4392C13.727 12.6901 13.5225 12.8943 13.2716 13.0221C12.9867 13.1673 12.614 13.1673 11.8687 13.1673H4.13127C3.386 13.1673 3.0128 13.1673 2.72786 13.0221C2.47698 12.8943 2.27316 12.6901 2.14532 12.4392C2 12.154 2 11.7809 2 11.0341ZM11.3333 9.50065C11.3333 10.0529 10.8856 10.5007 10.3333 10.5007C9.78105 10.5007 9.33333 10.0529 9.33333 9.50065C9.33333 8.94837 9.78105 8.50065 10.3333 8.50065C10.8856 8.50065 11.3333 8.94837 11.3333 9.50065Z" stroke="#04B7E0" stroke-width="1.5" stroke-linecap="round" stroke-linejoin="round"/>
</svg>
