<svg width="40" height="40" viewBox="0 0 40 40" fill="none" xmlns="http://www.w3.org/2000/svg">
<rect width="40" height="40" rx="20" fill="#04B7E0"/>
<path d="M23 19.0006L19 23.0006L17 21.0006M12 24.8007V19.4527C12 18.9184 12 18.6511 12.065 18.4024C12.1225 18.1821 12.2178 17.9736 12.3457 17.7851C12.49 17.5725 12.6906 17.3962 13.0928 17.0443L17.8944 12.8429C18.6398 12.1906 19.0126 11.8645 19.4324 11.7403C19.8026 11.6308 20.1972 11.6308 20.5674 11.7403C20.9875 11.8646 21.3608 12.191 22.1074 12.8443L26.9074 17.0443C27.3096 17.3962 27.5102 17.5725 27.6546 17.7851C27.7825 17.9736 27.877 18.1821 27.9346 18.4024C27.9995 18.6511 28 18.9184 28 19.4527V24.8041C28 25.9221 28 26.4816 27.7822 26.909C27.5905 27.2854 27.2837 27.591 26.9074 27.7828C26.48 28.0006 25.921 28.0006 24.8031 28.0006H15.1969C14.079 28.0006 13.5192 28.0006 13.0918 27.7828C12.7155 27.591 12.4097 27.2854 12.218 26.909C12 26.4812 12 25.9208 12 24.8007Z" stroke="white" stroke-width="2" stroke-linecap="round" stroke-linejoin="round"/>
</svg>
