<svg width="32" height="32" viewBox="0 0 32 32" fill="none" xmlns="http://www.w3.org/2000/svg">
<rect width="32" height="32" rx="16" fill="#04B7E0"/>
<path d="M18.0013 15.3324L15.3346 17.9991L14.0013 16.6657M10.668 19.1991V15.6338C10.668 15.2776 10.668 15.0994 10.7113 14.9336C10.7497 14.7867 10.8132 14.6477 10.8984 14.5221C10.9947 14.3804 11.1284 14.2628 11.3965 14.0282L14.5975 11.2273C15.0945 10.7924 15.343 10.575 15.6229 10.4922C15.8697 10.4193 16.1328 10.4193 16.3796 10.4922C16.6596 10.5751 16.9085 10.7927 17.4062 11.2282L20.6063 14.0282C20.8743 14.2628 21.0081 14.3804 21.1043 14.5221C21.1896 14.6477 21.2526 14.7867 21.291 14.9336C21.3343 15.0994 21.3346 15.2776 21.3346 15.6338V19.2015C21.3346 19.9467 21.3346 20.3198 21.1895 20.6047C21.0616 20.8556 20.8571 21.0594 20.6062 21.1872C20.3213 21.3324 19.9486 21.3324 19.2034 21.3324H12.7992C12.054 21.3324 11.6808 21.3324 11.3958 21.1872C11.145 21.0594 10.9411 20.8556 10.8133 20.6047C10.668 20.3195 10.668 19.9459 10.668 19.1991Z" stroke="white" stroke-width="1.5" stroke-linecap="round" stroke-linejoin="round"/>
</svg>
