<svg width="48" height="48" viewBox="0 0 48 48" fill="none" xmlns="http://www.w3.org/2000/svg">
<rect width="48" height="48" rx="24" fill="#04B7E0"/>
<path d="M21 29H27M21 26H27M25.0004 15.0009C24.9048 15 24.7974 15 24.6747 15H20.2002C19.0801 15 18.5196 15 18.0918 15.218C17.7155 15.4097 17.4097 15.7155 17.218 16.0918C17 16.5196 17 17.0801 17 18.2002V29.8002C17 30.9203 17 31.4801 17.218 31.9079C17.4097 32.2842 17.7155 32.5905 18.0918 32.7822C18.5192 33 19.079 33 20.1969 33L27.8031 33C28.921 33 29.48 33 29.9074 32.7822C30.2837 32.5905 30.5905 32.2842 30.7822 31.9079C31 31.4805 31 30.9215 31 29.8036V21.3257C31 21.203 30.9999 21.0955 30.999 21M25.0004 15.0009C25.2858 15.0035 25.4657 15.0141 25.6382 15.0555C25.8423 15.1045 26.0379 15.1853 26.2168 15.2949C26.4186 15.4186 26.5918 15.5918 26.9375 15.9375L30.063 19.063C30.4089 19.4089 30.5809 19.5814 30.7046 19.7832C30.8142 19.9621 30.8953 20.1573 30.9443 20.3613C30.9857 20.5338 30.9964 20.7145 30.999 21M25.0004 15.0009L25 17.8002C25 18.9203 25 19.4802 25.218 19.908C25.4097 20.2843 25.7155 20.5905 26.0918 20.7822C26.5192 21 27.079 21 28.1969 21H30.999" stroke="white" stroke-width="2" stroke-linecap="round" stroke-linejoin="round"/>
</svg>
