<svg width="32" height="32" viewBox="0 0 32 32" fill="none" xmlns="http://www.w3.org/2000/svg">
<path d="M12 8H12.4492C12.7753 8 12.9385 8 13.0919 8.03684C13.228 8.0695 13.3586 8.12351 13.4779 8.19661C13.6124 8.27904 13.7279 8.39455 13.9583 8.625L18.042 12.7087C18.2726 12.9392 18.3872 13.0539 18.4697 13.1885C18.5428 13.3078 18.5975 13.4382 18.6302 13.5742C18.6667 13.7261 18.6667 13.8874 18.6667 14.2069V24M12 8H6.13281C5.38608 8 5.01308 8 4.72786 8.14532C4.47698 8.27316 4.27316 8.47698 4.14532 8.72786C4 9.01308 4 9.38673 4 10.1335V25.8668C4 26.6135 4 26.9864 4.14532 27.2716C4.27316 27.5225 4.47698 27.727 4.72786 27.8548C5.01281 28 5.38536 28 6.13066 28L16.5347 28C17.28 28 17.654 28 17.9389 27.8548C18.1898 27.727 18.393 27.5228 18.5208 27.2719C18.6662 26.9867 18.6667 26.6132 18.6667 25.8665V24M12 8V12.5333C12 13.2801 12 13.6532 12.1453 13.9384C12.2732 14.1893 12.477 14.3937 12.7279 14.5215C13.0128 14.6667 13.3853 14.6667 14.1306 14.6667H18.6661M13.3333 8.00013V6.13346C13.3333 5.38673 13.3333 5.01308 13.4787 4.72786C13.6065 4.47698 13.8103 4.27316 14.0612 4.14532C14.3464 4 14.7194 4 15.4661 4H21.3333M21.3333 4H21.7825C22.1086 4 22.2718 4 22.4252 4.03684C22.5613 4.0695 22.6919 4.12351 22.8112 4.19661C22.9457 4.27904 23.0612 4.39455 23.2917 4.625L27.3753 8.70865C27.6059 8.93926 27.7206 9.05391 27.803 9.18847C27.8761 9.30777 27.9309 9.43817 27.9635 9.57422C28 9.7261 28 9.88736 28 10.2069V21.8665C28 22.6132 27.9995 22.9867 27.8542 23.2719C27.7263 23.5228 27.5239 23.727 27.273 23.8548C26.9881 24 26.6147 24 25.8694 24H18.6667M21.3333 4V8.53333C21.3333 9.28007 21.3333 9.65318 21.4787 9.93839C21.6065 10.1893 21.8103 10.3937 22.0612 10.5215C22.3461 10.6667 22.7187 10.6667 23.464 10.6667H27.9995" stroke="#212121" stroke-width="2.5" stroke-linecap="round" stroke-linejoin="round"/>
</svg>
