<svg width="36" height="36" viewBox="0 0 36 36" fill="none" xmlns="http://www.w3.org/2000/svg">
<rect width="36" height="36" rx="18" fill="#04B7E0"/>
<path d="M15.9987 21.3333H19.9987M15.9987 19.3333H19.9987M18.6656 12.0006C18.6019 12 18.5303 12 18.4485 12H15.4655C14.7188 12 14.3451 12 14.0599 12.1453C13.809 12.2732 13.6052 12.477 13.4774 12.7279C13.332 13.0131 13.332 13.3867 13.332 14.1335V21.8668C13.332 22.6135 13.332 22.9867 13.4774 23.2719C13.6052 23.5228 13.809 23.727 14.0599 23.8548C14.3448 24 14.718 24 15.4633 24L20.5341 24C21.2794 24 21.652 24 21.937 23.8548C22.1878 23.727 22.3924 23.5228 22.5202 23.2719C22.6654 22.987 22.6654 22.6143 22.6654 21.8691V16.2171C22.6654 16.1353 22.6653 16.0637 22.6647 16M18.6656 12.0006C18.8559 12.0023 18.9758 12.0094 19.0908 12.037C19.2269 12.0696 19.3573 12.1235 19.4766 12.1966C19.6111 12.279 19.7266 12.3945 19.957 12.625L22.0407 14.7087C22.2713 14.9393 22.3859 15.0542 22.4684 15.1888C22.5415 15.3081 22.5956 15.4382 22.6283 15.5742C22.6559 15.6892 22.663 15.8097 22.6647 16M18.6656 12.0006L18.6654 13.8668C18.6654 14.6135 18.6654 14.9868 18.8107 15.272C18.9385 15.5229 19.1423 15.727 19.3932 15.8548C19.6782 16 20.0514 16 20.7966 16H22.6647" stroke="white" stroke-width="1.5" stroke-linecap="round" stroke-linejoin="round"/>
</svg>
