<svg width="32" height="32" viewBox="0 0 32 32" fill="none" xmlns="http://www.w3.org/2000/svg">
<path d="M12.0013 20L14.668 22.6667L20.0013 17.3333M17.3346 4.00116C17.2073 4 17.0643 4 16.9009 4H10.9349C9.44142 4 8.69413 4 8.1237 4.29065C7.62193 4.54631 7.21428 4.95396 6.95862 5.45573C6.66797 6.02616 6.66797 6.77345 6.66797 8.26693V23.7336C6.66797 25.2271 6.66797 25.9734 6.95862 26.5438C7.21428 27.0456 7.62193 27.454 8.1237 27.7096C8.69358 28 9.43997 28 10.9306 28L21.0721 28C22.5626 28 23.308 28 23.8778 27.7096C24.3796 27.454 24.7886 27.0456 25.0443 26.5438C25.3346 25.974 25.3346 25.2287 25.3346 23.7381V12.4342C25.3346 12.2706 25.3346 12.1275 25.3334 12M17.3346 4.00116C17.7155 4.00463 17.9564 4.01846 18.1864 4.07368C18.4585 4.139 18.7184 4.24702 18.957 4.39323C19.2261 4.55809 19.4571 4.78909 19.918 5.25L24.0853 9.41731C24.5465 9.87852 24.7758 10.1085 24.9407 10.3776C25.0869 10.6162 25.1951 10.8763 25.2604 11.1484C25.3156 11.3783 25.3298 11.6193 25.3334 12M17.3346 4.00116V7.73333C17.3346 9.22681 17.3346 9.97302 17.6253 10.5435C17.8809 11.0452 18.2886 11.454 18.7904 11.7096C19.3602 12 20.1066 12 21.5972 12H25.3334M25.3334 12H25.3349" stroke="#212121" stroke-width="2.5" stroke-linecap="round" stroke-linejoin="round"/>
</svg>
