<svg width="24" height="24" viewBox="0 0 24 24" fill="none" xmlns="http://www.w3.org/2000/svg">
<path d="M22.2356 6.68885L20.4355 4.85345C20.2253 4.63929 19.9403 4.51897 19.6431 4.51897C19.3459 4.51897 19.0609 4.63929 18.8508 4.85345C18.6406 5.06761 18.5225 5.35808 18.5225 5.66095C18.5225 5.96382 18.6406 6.25429 18.8508 6.46845L20.6536 8.301C20.6883 8.33632 20.7157 8.37824 20.7344 8.42437C20.7531 8.4705 20.7627 8.51993 20.7627 8.56985V16.11C20.7627 16.2612 20.7038 16.4062 20.5989 16.5131C20.494 16.6199 20.3517 16.68 20.2034 16.68C20.055 16.68 19.9128 16.6199 19.8079 16.5131C19.703 16.4062 19.6441 16.2612 19.6441 16.11V12.5C19.6441 11.7945 19.3691 11.1179 18.8796 10.6191C18.3901 10.1202 17.7262 9.84 17.0339 9.84H15.9152V5.66C15.9152 4.95452 15.6402 4.27794 15.1507 3.7791C14.6612 3.28025 13.9973 3 13.3051 3H5.84746C5.1552 3 4.49129 3.28025 4.00179 3.7791C3.51229 4.27794 3.23729 4.95452 3.23729 5.66V19.72H2.11864C1.82196 19.72 1.53743 19.8401 1.32764 20.0539C1.11786 20.2677 1 20.5577 1 20.86C1 21.1623 1.11786 21.4523 1.32764 21.6661C1.53743 21.8799 1.82196 22 2.11864 22H17.0339C17.3306 22 17.6151 21.8799 17.8249 21.6661C18.0347 21.4523 18.1525 21.1623 18.1525 20.86C18.1525 20.5577 18.0347 20.2677 17.8249 20.0539C17.6151 19.8401 17.3306 19.72 17.0339 19.72H15.9152V12.12H17.0339C17.1328 12.12 17.2276 12.16 17.2976 12.2313C17.3675 12.3026 17.4068 12.3992 17.4068 12.5V16.11C17.4068 16.8659 17.7014 17.5908 18.2259 18.1253C18.7503 18.6597 19.4617 18.96 20.2034 18.96C20.9451 18.96 21.6564 18.6597 22.1809 18.1253C22.7053 17.5908 23 16.8659 23 16.11V8.56985C23.001 8.22037 22.934 7.87415 22.8028 7.55127C22.6716 7.22838 22.4788 6.93525 22.2356 6.68885ZM5.47457 19.72V5.66C5.47457 5.55922 5.51386 5.46256 5.58379 5.3913C5.65372 5.32004 5.74856 5.28 5.84746 5.28H13.3051C13.404 5.28 13.4988 5.32004 13.5687 5.3913C13.6387 5.46256 13.678 5.55922 13.678 5.66V19.72H5.47457ZM12.1864 10.98C12.1864 11.2823 12.0686 11.5723 11.8588 11.7861C11.649 11.9999 11.3645 12.12 11.0678 12.12H8.08474C7.78806 12.12 7.50353 11.9999 7.29374 11.7861C7.08396 11.5723 6.9661 11.2823 6.9661 10.98C6.9661 10.6777 7.08396 10.3877 7.29374 10.1739C7.50353 9.96011 7.78806 9.84 8.08474 9.84H11.0678C11.3645 9.84 11.649 9.96011 11.8588 10.1739C12.0686 10.3877 12.1864 10.6777 12.1864 10.98Z" fill="#212121"/>
</svg>
