<svg width="32" height="32" viewBox="0 0 32 32" fill="none" xmlns="http://www.w3.org/2000/svg">
<path d="M19.9987 14.6668L14.6654 20.0001L11.9987 17.3334M5.33203 22.4002V15.2696C5.33203 14.5572 5.33203 14.2008 5.41866 13.8692C5.49543 13.5754 5.62242 13.2974 5.79297 13.0462C5.98542 12.7627 6.25289 12.5276 6.78906 12.0584L13.1912 6.45658C14.1852 5.58685 14.6822 5.15196 15.2419 4.98643C15.7355 4.84046 16.2616 4.84046 16.7552 4.98643C17.3154 5.15208 17.8131 5.58739 18.8086 6.45843L25.2086 12.0584C25.7448 12.5276 26.0123 12.7627 26.2048 13.0462C26.3753 13.2974 26.5014 13.5754 26.5781 13.8692C26.6648 14.2008 26.6654 14.5572 26.6654 15.2696V22.4049C26.6654 23.8954 26.6654 24.6415 26.375 25.2114C26.1193 25.7132 25.7103 26.1207 25.2086 26.3764C24.6387 26.6668 23.8934 26.6668 22.4028 26.6668H9.59458C8.10402 26.6668 7.35763 26.6668 6.78776 26.3764C6.28599 26.1207 5.87834 25.7132 5.62268 25.2114C5.33203 24.641 5.33203 23.8937 5.33203 22.4002Z" stroke="#212121" stroke-width="2.5" stroke-linecap="round" stroke-linejoin="round"/>
</svg>
