<svg width="32" height="32" viewBox="0 0 32 32" fill="none" xmlns="http://www.w3.org/2000/svg">
<rect width="32" height="32" rx="16" fill="#04B7E0"/>
<path d="M11.332 14.6152C11.332 17.8498 14.1617 20.5246 15.4142 21.5501C15.5934 21.6969 15.6841 21.7712 15.8178 21.8088C15.922 21.8381 16.0752 21.8381 16.1794 21.8088C16.3133 21.7711 16.4034 21.6976 16.5833 21.5502C17.8358 20.5247 20.6653 17.8501 20.6653 14.6155C20.6653 13.3915 20.1737 12.2174 19.2985 11.3518C18.4233 10.4863 17.2364 10 15.9988 10C14.7611 10 13.574 10.4863 12.6989 11.3519C11.8237 12.2174 11.332 13.3912 11.332 14.6152Z" stroke="white" stroke-width="1.5" stroke-linecap="round" stroke-linejoin="round"/>
<path d="M14.6654 14C14.6654 14.7364 15.2623 15.3333 15.9987 15.3333C16.7351 15.3333 17.332 14.7364 17.332 14C17.332 13.2636 16.7351 12.6667 15.9987 12.6667C15.2623 12.6667 14.6654 13.2636 14.6654 14Z" stroke="white" stroke-width="1.5" stroke-linecap="round" stroke-linejoin="round"/>
</svg>
