<svg width="40" height="40" viewBox="0 0 40 40" fill="none" xmlns="http://www.w3.org/2000/svg">
<rect width="40" height="40" rx="20" fill="#04B7E0"/>
<path d="M13 17.9229C13 22.7747 17.2445 26.7869 19.1232 28.3252C19.3921 28.5454 19.5281 28.6568 19.7287 28.7132C19.8849 28.7572 20.1148 28.7572 20.271 28.7132C20.472 28.6567 20.6071 28.5463 20.877 28.3254C22.7557 26.7871 26.9999 22.7751 26.9999 17.9233C26.9999 16.0872 26.2625 14.3261 24.9497 13.0277C23.637 11.7294 21.8566 11 20.0001 11C18.1436 11 16.363 11.7295 15.0503 13.0278C13.7375 14.3262 13 16.0867 13 17.9229Z" stroke="white" stroke-width="2" stroke-linecap="round" stroke-linejoin="round"/>
<path d="M18 17C18 18.1046 18.8954 19 20 19C21.1046 19 22 18.1046 22 17C22 15.8954 21.1046 15 20 15C18.8954 15 18 15.8954 18 17Z" stroke="white" stroke-width="2" stroke-linecap="round" stroke-linejoin="round"/>
</svg>
