<svg width="343" height="26" viewBox="0 0 343 26" fill="none" xmlns="http://www.w3.org/2000/svg">
<g clip-path="url(#clip0_3041_37066)">
<path fill-rule="evenodd" clip-rule="evenodd" d="M321.168 14.4265C320.717 14.4265 320.691 13.6606 320.691 13.5087C320.691 13.2935 320.73 12.5909 321.168 12.5909C321.606 12.5909 321.635 13.2935 321.635 13.5087C321.635 13.6606 321.616 14.4265 321.168 14.4265ZM315.525 4.95703H311.415C310.913 4.95703 310.513 5.35265 310.513 5.84321V11.5971L306.601 5.3748C306.438 5.11528 306.147 4.95703 305.84 4.95703H301.349C300.856 4.95703 300.453 5.35265 300.453 5.84321V20.8735C300.453 21.3609 300.856 21.7629 301.349 21.7629H305.459C305.952 21.7629 306.355 21.3609 306.355 20.8735V14.9804L310.334 21.3388C310.5 21.5983 310.791 21.7629 311.098 21.7629H315.522C316.015 21.7629 316.421 21.3609 316.421 20.8735V15.7052C316.891 16.7939 317.707 17.563 318.663 18.0346H317.659C317.163 18.0346 316.757 18.4302 316.757 18.9176V20.8735C316.757 21.3609 317.163 21.7629 317.659 21.7629H324.667C325.166 21.7629 325.566 21.3609 325.566 20.8735V18.9176C325.566 18.4302 325.166 18.0346 324.667 18.0346H323.663C325.166 17.2971 326.33 15.8128 326.33 13.5087C326.33 10.0083 323.65 8.41315 321.165 8.41315C319.274 8.41315 317.272 9.33415 316.421 11.3091V5.84321C316.421 5.35265 316.018 4.95703 315.522 4.95703H315.525ZM324.67 20.8735H317.662V18.9176H324.67V20.8735ZM321.168 15.3127C322.083 15.3127 322.537 14.4962 322.537 13.5087C322.537 12.2427 321.859 11.7015 321.168 11.7015C320.477 11.7015 319.796 12.2427 319.796 13.5087C319.796 14.4962 320.253 15.3127 321.168 15.3127ZM321.168 9.29933C319.034 9.29933 316.897 10.6539 316.897 13.5087C316.897 16.3635 319.034 17.7181 321.168 17.7181C323.301 17.7181 325.435 16.3666 325.435 13.5087C325.435 10.6508 323.298 9.29933 321.168 9.29933ZM315.525 5.84321V20.8735H311.101L305.462 11.8534V20.8735H301.352V5.84321H305.843L311.415 14.7082V5.84321H315.525Z" fill="#23325B"/>
<path fill-rule="evenodd" clip-rule="evenodd" d="M321.169 12.6943C320.81 12.6943 320.801 13.4254 320.801 13.5077C320.801 13.5425 320.807 14.3211 321.169 14.3211C321.53 14.3211 321.533 13.59 321.533 13.5077C321.533 13.3716 321.514 12.6943 321.169 12.6943ZM321.169 14.53C320.74 14.53 320.586 13.9982 320.586 13.5077C320.586 13.2671 320.628 12.4854 321.169 12.4854C321.527 12.4854 321.741 12.8652 321.741 13.5077C321.741 13.7482 321.703 14.53 321.169 14.53ZM321.169 11.8081C321.751 11.8081 322.429 12.2512 322.429 13.5077C322.429 14.2894 322.099 15.2073 321.169 15.2073C320.238 15.2073 319.899 14.2894 319.899 13.5077C319.899 12.2512 320.583 11.8081 321.169 11.8081ZM321.169 15.4161C320.266 15.4161 319.688 14.666 319.688 13.5077C319.688 12.0993 320.484 11.5961 321.169 11.5961C321.853 11.5961 322.643 12.0961 322.643 13.5077C322.643 14.666 322.064 15.4161 321.169 15.4161ZM321.169 9.40591C323.171 9.40591 325.33 10.6877 325.33 13.5108C325.33 16.334 323.174 17.6158 321.169 17.6158C319.163 17.6158 317.004 16.3308 317.004 13.5108C317.004 10.6909 319.16 9.40591 321.169 9.40591ZM321.169 17.8247C319.061 17.8247 316.793 16.4701 316.793 13.5108C316.793 10.5516 319.061 9.19703 321.169 9.19703C323.276 9.19703 325.541 10.5453 325.541 13.5108C325.541 16.4764 323.273 17.8247 321.169 17.8247ZM311.163 20.7681H315.421V5.94663H311.518V15.0743L305.783 5.94663H301.458V20.7681H305.354V11.4853L311.16 20.7681H311.163ZM315.635 20.9769H311.048L305.572 12.2227V20.9769H301.25V5.73458H305.901L311.31 14.3369V5.73458H315.638V20.9738L315.635 20.9769ZM317.772 20.7681H324.566V19.0273H317.772V20.7681ZM324.78 20.9769H317.557V18.8153H324.78V20.9769ZM317.663 18.1412H319.118L318.715 17.9418C317.708 17.4449 316.949 16.66 316.521 15.6662L316.316 15.1946V20.8757C316.316 21.3061 315.961 21.6542 315.526 21.6542H311.102C310.834 21.6542 310.575 21.5118 310.427 21.2839L306.25 14.6091V20.8757C306.25 21.3061 305.895 21.6542 305.46 21.6542H301.35C300.915 21.6542 300.559 21.3061 300.559 20.8757V5.84219C300.559 5.40859 300.915 5.06045 301.35 5.06045H305.84C306.109 5.06045 306.365 5.20287 306.509 5.43075L310.616 11.9695V5.84219C310.616 5.40859 310.974 5.06045 311.413 5.06045H315.523C315.961 5.06045 316.313 5.41176 316.313 5.84219V11.8239L316.518 11.3524C317.42 9.26349 319.508 8.51973 321.165 8.51973C323.6 8.51973 326.226 10.08 326.226 13.5108C326.226 16.2485 324.594 17.4639 323.619 17.9449L323.216 18.1443H324.668C325.106 18.1443 325.461 18.4956 325.461 18.9229V20.8788C325.461 21.3093 325.109 21.6574 324.668 21.6574H317.66C317.218 21.6574 316.863 21.3093 316.863 20.8788V18.9229C316.863 18.4956 317.218 18.1443 317.66 18.1443L317.663 18.1412ZM324.671 21.8663H317.663C317.106 21.8663 316.655 21.42 316.655 20.8757V18.9197C316.655 18.3754 317.106 17.9323 317.663 17.9323H318.255C317.522 17.4923 316.937 16.891 316.53 16.1631V20.8725C316.53 21.42 316.083 21.8631 315.526 21.8631H311.102C310.757 21.8631 310.431 21.6827 310.248 21.3915L306.464 15.3465V20.8725C306.464 21.42 306.016 21.8631 305.463 21.8631H301.353C300.799 21.8631 300.352 21.4169 300.352 20.8725V5.84219C300.352 5.29465 300.803 4.85156 301.353 4.85156H305.844C306.186 4.85156 306.512 5.0288 306.695 5.31997L310.411 11.2321V5.84219C310.411 5.29465 310.862 4.85156 311.419 4.85156H315.529C316.083 4.85156 316.534 5.29465 316.534 5.84219V10.8523C317.557 8.98814 319.563 8.30768 321.172 8.30768C323.708 8.30768 326.44 9.93446 326.44 13.5077C326.44 16.0396 325.096 17.3214 324.079 17.9291H324.671C325.228 17.9291 325.675 18.3722 325.675 18.9166V20.8725C325.675 21.42 325.224 21.8631 324.671 21.8631V21.8663Z" fill="#23325B"/>
<path fill-rule="evenodd" clip-rule="evenodd" d="M342.894 0.214844L340.844 1.79731L329.307 10.7066L328.82 11.0833V16.682L330.615 15.2768V21.7428H342.143V6.32002L342.411 6.1143L342.894 5.73767V0.214844ZM341.625 2.78478V5.13316L340.876 5.71551V20.4895H331.881V12.6879L330.084 14.0931V11.6941L341.625 2.78478Z" fill="#23325B"/>
<path fill-rule="evenodd" clip-rule="evenodd" d="M331.99 20.3822H340.771V5.66208L341.522 5.0829V2.9972L330.193 11.7451V13.8751L331.99 12.473V20.3822ZM340.985 20.5943H331.779V12.9035L329.982 14.3087V11.6407L330.02 11.609L341.737 2.56677V5.18101L340.982 5.76336V20.5911L340.985 20.5943ZM330.724 21.6419V15.0588L328.929 16.464V11.1311L342.789 0.430432V5.6874L342.04 6.26658V21.6419H330.724ZM342.252 21.8476H330.509V15.4924L328.715 16.8976V11.0267L329.246 10.6184L343 0V5.78551L342.252 6.37103V21.8476Z" fill="#23325B"/>
<path fill-rule="evenodd" clip-rule="evenodd" d="M28.4025 0.535156L26.3362 2.12079L3.22898 19.9426L0.308594 22.196H7.63995L7.98541 21.9302L16.0365 15.6889V22.196H27.6381V6.69097L27.9163 6.47892L28.4057 6.10229V0.535156H28.4025ZM27.1263 3.11775V5.48829L26.3618 6.07697V20.9332H17.3063V13.0968L7.19534 20.9332H4.01586L27.1263 3.11775Z" fill="#23325B"/>
<path fill-rule="evenodd" clip-rule="evenodd" d="M17.4136 20.833H26.2579V6.03061L27.0192 5.44193V3.33408L4.3246 20.833H7.15863L17.4168 12.8827V20.833H17.4136ZM26.469 21.0419H17.1993V13.3131L7.2322 21.0419H3.70726L27.2335 2.90365V5.54321L26.469 6.13189V21.0419ZM16.1373 22.0927V15.4748L7.91352 21.849L7.59685 22.0927H0.614145L26.3986 2.20736L28.2955 0.751486V6.05276L27.531 6.64461V22.0927H16.1405H16.1373ZM27.7389 22.3016H15.9294V15.9052L7.67681 22.3016H0L3.16349 19.8614L26.2675 2.04278L28.5066 0.324219V6.15404L27.7421 6.74589V22.3016H27.7389Z" fill="#23325B"/>
<path fill-rule="evenodd" clip-rule="evenodd" d="M44.1761 0.535156L42.1162 2.12712L30.505 11.0902L30.0156 11.4669V17.1036L31.8197 15.6889V22.1929H43.4277V6.67831L43.6963 6.46942L44.1761 6.08963V0.535156ZM42.8999 3.11775V5.48196L42.1482 6.06431V20.9364H33.0927V13.0842L31.2919 14.502V12.084L42.8999 3.12091V3.11775Z" fill="#23325B"/>
<path fill-rule="evenodd" clip-rule="evenodd" d="M33.1977 20.8323H42.042V6.01721L42.7937 5.43169V3.33334L31.3968 12.135V14.284L33.2009 12.8661V20.8323H33.1977ZM42.2531 21.0412H32.9834V13.2997L31.1825 14.7176V12.0338L43.0048 2.90607V5.53614L42.2531 6.11849V21.0412ZM31.9214 22.092V15.4772L30.1174 16.8951V11.521L44.07 0.750745V6.03936L43.3183 6.62804V22.0888H31.9214V22.092ZM43.5294 22.3008H31.7103V15.9108L29.9062 17.3255V11.4198L44.2811 0.320312V6.14064L43.5294 6.72932V22.2977V22.3008Z" fill="#23325B"/>
<path fill-rule="evenodd" clip-rule="evenodd" d="M59.2181 6.13598C55.319 6.13598 51.375 8.89264 51.375 14.1623C51.375 18.8939 54.6249 22.1917 59.2789 22.1917C60.3441 22.1917 61.9402 22.0715 63.4788 21.0365C63.7027 20.8878 63.837 20.6377 63.837 20.3687V16.4822C63.837 16.1593 63.6323 15.8618 63.3252 15.7416C63.2261 15.7004 63.1237 15.6814 63.0182 15.6814C62.8007 15.6814 62.5895 15.7637 62.436 15.9188C61.873 16.4853 60.9518 17.1626 59.7331 17.1626C58.0762 17.1626 57.0079 16.0296 57.0079 14.2762C57.0079 12.4121 58.1018 11.1587 59.7331 11.1587C60.7215 11.1587 61.6172 11.6145 62.3976 12.5165C62.5576 12.6969 62.7879 12.7982 63.0182 12.7982C63.1141 12.7982 63.2101 12.7824 63.306 12.7444C63.6227 12.6304 63.8402 12.3266 63.8402 11.9911V8.02861C63.8402 7.75959 63.7027 7.51273 63.482 7.36081C62.2921 6.57274 60.7823 6.13281 59.2213 6.13281L59.2181 6.13598ZM59.2181 6.94304C60.4464 6.94304 61.8507 7.2532 63.0182 8.03178V11.9943C62.3049 11.1777 61.2237 10.358 59.7331 10.358C57.5932 10.358 56.1922 12.0354 56.1922 14.2794C56.1922 16.3461 57.5197 17.9729 59.7331 17.9729C61.1789 17.9729 62.3081 17.2101 63.0182 16.4853V20.3719C61.7707 21.2138 60.4656 21.391 59.2789 21.391C55.1622 21.391 52.1939 18.5426 52.1939 14.1654C52.1939 9.78832 55.4565 6.9462 59.2181 6.9462V6.94304Z" fill="#23325B"/>
<path fill-rule="evenodd" clip-rule="evenodd" d="M59.2221 7.04477C55.8923 7.04477 52.3034 9.27289 52.3034 14.1596C52.3034 18.4164 55.1086 21.2807 59.2829 21.2807C60.2937 21.2807 61.6179 21.1699 62.9166 20.3122V16.7358C62.3057 17.3024 61.2053 18.0746 59.7371 18.0746C57.5876 18.0746 56.0906 16.5143 56.0906 14.2767C56.0906 11.9061 57.5908 10.2477 59.7371 10.2477C60.9046 10.2477 61.9986 10.7572 62.9166 11.7162V8.08287C61.8898 7.41191 60.5816 7.04161 59.2221 7.04161V7.04477ZM59.2829 21.4896C55.0479 21.4896 52.0923 18.4765 52.0923 14.1596C52.0923 9.12414 55.7868 6.83272 59.2221 6.83272C60.6424 6.83272 62.0114 7.22834 63.0829 7.94362L63.1277 7.97843V12.2764L62.9422 12.0612C62.0178 10.9978 60.9398 10.4597 59.7371 10.4597C57.7124 10.4597 56.3018 12.0296 56.3018 14.2767C56.3018 16.5238 57.6804 17.8657 59.7371 17.8657C61.2853 17.8657 62.4112 16.9542 62.9486 16.413L63.1309 16.2263V20.423L63.0861 20.4515C61.7267 21.3693 60.3417 21.4896 59.2861 21.4896H59.2829ZM59.2221 6.24088C60.7607 6.24088 62.2513 6.67131 63.422 7.45305C63.6171 7.58598 63.7323 7.80119 63.7323 8.0354V11.9947C63.7323 12.2859 63.5467 12.5518 63.2685 12.653C62.9902 12.7575 62.6767 12.6752 62.4816 12.4537C61.6755 11.5263 60.7543 11.0579 59.7339 11.0579C58.0418 11.0579 56.9031 12.3524 56.9031 14.2798C56.9031 16.0965 58.013 17.2707 59.7339 17.2707C60.9846 17.2707 61.9346 16.5776 62.5136 15.9984C62.6447 15.8655 62.8238 15.7895 63.019 15.7895C63.1213 15.7895 63.2045 15.8085 63.2877 15.8433C63.5531 15.9478 63.7323 16.2104 63.7323 16.4858V20.3723C63.7323 20.6066 63.6171 20.8249 63.422 20.9547C61.9058 21.9738 60.3321 22.0909 59.2797 22.0909C54.6896 22.0909 51.4814 18.831 51.4814 14.1659C51.4814 8.96589 55.3741 6.24404 59.2189 6.24404L59.2221 6.24088ZM59.2829 22.2998C54.5649 22.2998 51.2734 18.9544 51.2734 14.1627C51.2734 8.82663 55.275 6.03516 59.2221 6.03516C60.8023 6.03516 62.3344 6.47825 63.5435 7.28214C63.7962 7.45305 63.9466 7.73473 63.9466 8.0354V11.9947C63.9466 12.3745 63.7067 12.7195 63.3452 12.8493C62.9934 12.9822 62.5743 12.8778 62.3217 12.5898C61.5604 11.7162 60.6903 11.27 59.7371 11.27C58.173 11.27 57.1174 12.479 57.1174 14.2798C57.1174 15.9667 58.1442 17.0618 59.7371 17.0618C60.9142 17.0618 61.8163 16.4003 62.3664 15.8496C62.5392 15.6724 62.7727 15.5775 63.0254 15.5775C63.1533 15.5775 63.2717 15.5996 63.3772 15.6439C63.7195 15.78 63.9498 16.1187 63.9498 16.4826V20.3692C63.9498 20.6698 63.7994 20.9547 63.5467 21.1256C61.9826 22.1764 60.3641 22.2998 59.2861 22.2998H59.2829Z" fill="#23325B"/>
<path fill-rule="evenodd" clip-rule="evenodd" d="M72.3024 10.7617H63.8547C63.4005 10.7617 63.0391 11.1225 63.0391 11.5624V14.0248C63.0391 14.471 63.4005 14.8287 63.8547 14.8287H65.5276V20.994C65.5276 21.4371 65.8923 21.7979 66.3497 21.7979H69.8107C70.2585 21.7979 70.6263 21.4371 70.6263 20.994V14.8287H72.3024C72.7534 14.8287 73.1213 14.4679 73.1213 14.0248V11.5624C73.1213 11.1225 72.7534 10.7617 72.3024 10.7617ZM72.3024 11.5624V14.0248H69.8107V20.9971H66.3497V14.0248H63.8547V11.5624H72.3024Z" fill="#23325B"/>
<path fill-rule="evenodd" clip-rule="evenodd" d="M66.4546 20.8878H69.7045V13.9186H72.1962V11.6651H63.9629V13.9186H66.4546V20.8878ZM69.9156 21.0967H66.2403V14.1274H63.7485V11.4562H72.4073V14.1274H69.9156V21.0967ZM63.8541 10.8612H72.3018C72.6952 10.8612 73.0119 11.1746 73.0119 11.5575V14.0198C73.0119 14.406 72.6952 14.7193 72.3018 14.7193H70.5201V20.989C70.5201 21.3752 70.2003 21.6885 69.81 21.6885H66.3491C65.9556 21.6885 65.6326 21.3752 65.6326 20.989V14.7193H63.8541C63.4639 14.7193 63.144 14.406 63.144 14.0198V11.5575C63.144 11.1746 63.4607 10.8612 63.8541 10.8612ZM69.81 21.9005H66.3491C65.8373 21.9005 65.4215 21.4923 65.4215 20.9922V14.9313H63.8541C63.3455 14.9313 62.9297 14.5231 62.9297 14.0198V11.5575C62.9297 11.0575 63.3423 10.6523 63.8541 10.6523H72.3018C72.8136 10.6523 73.2262 11.0575 73.2262 11.5575V14.0198C73.2262 14.5231 72.8136 14.9313 72.3018 14.9313H70.7312V20.9922C70.7312 21.4923 70.3154 21.9005 69.81 21.9005Z" fill="#23325B"/>
<path fill-rule="evenodd" clip-rule="evenodd" d="M78.8175 17.7299C77.6788 17.7299 77.5541 16.7045 77.5541 16.2646C77.5541 15.8246 77.6788 14.8277 78.8175 14.8277C79.6044 14.8277 80.0778 15.3625 80.0778 16.2646C80.0778 17.1666 79.6044 17.7299 78.8175 17.7299ZM80.0234 10.4062C79.051 10.4062 78.2354 10.6151 77.5157 11.0582C77.3653 10.8715 77.135 10.7576 76.8759 10.7576H73.5493C73.0983 10.7576 72.7305 11.1184 72.7305 11.5583V25.0884C72.7305 25.5315 73.0983 25.8955 73.5493 25.8955H77.0167C77.4645 25.8955 77.8323 25.5347 77.8323 25.0884V21.6576C78.4913 21.9836 79.2238 22.145 80.0234 22.145C83.0782 22.145 85.2917 19.6732 85.2917 16.2646C85.2917 12.8559 83.123 10.4062 80.0234 10.4062ZM78.8175 18.537C80.0426 18.537 80.8967 17.6571 80.8967 16.2646C80.8967 14.872 80.0426 14.0238 78.8175 14.0238C77.3525 14.0238 76.7384 15.1537 76.7384 16.2646C76.7384 17.3755 77.3525 18.537 78.8175 18.537ZM80.0234 11.2101C78.6384 11.2101 77.7268 11.6817 76.8759 12.7103V11.5615H73.5493V25.0916H77.0167V20.0403C77.8835 20.9772 78.8943 21.3443 80.0234 21.3443C82.7743 21.3443 84.4792 19.0434 84.4792 16.2677C84.4792 13.2452 82.6943 11.2133 80.0234 11.2133V11.2101Z" fill="#23325B"/>
<path fill-rule="evenodd" clip-rule="evenodd" d="M78.8183 14.9335C77.8108 14.9335 77.6604 15.7691 77.6604 16.2628C77.6604 16.7565 77.8108 17.6237 78.8183 17.6237C79.5412 17.6237 79.9731 17.1142 79.9731 16.2628C79.9731 15.4114 79.5508 14.9335 78.8183 14.9335ZM78.8183 17.8326C77.5485 17.8326 77.4461 16.6331 77.4461 16.2628C77.4461 15.8925 77.5453 14.7215 78.8183 14.7215C79.6628 14.7215 80.1842 15.3133 80.1842 16.2628C80.1842 17.2123 79.6596 17.8326 78.8183 17.8326ZM78.8183 14.1265C79.9955 14.1265 80.7887 14.9842 80.7887 16.2628C80.7887 17.5414 80.0178 18.4276 78.8183 18.4276C77.3629 18.4276 76.8448 17.2629 76.8448 16.2628C76.8448 15.2627 77.3597 14.1265 78.8183 14.1265ZM78.8183 18.6365C77.2062 18.6365 76.6336 17.3579 76.6336 16.2628C76.6336 15.0949 77.3086 13.9176 78.8183 13.9176C80.1234 13.9176 81.003 14.8607 81.003 16.2628C81.003 17.6649 80.1234 18.6365 78.8183 18.6365ZM73.6589 24.9822V11.6641H76.7712V13.0029L76.9599 12.775C77.8172 11.7369 78.7064 11.3128 80.0242 11.3128C82.6248 11.3128 84.3744 13.3004 84.3744 16.2628C84.3744 19.2252 82.5448 21.2349 80.0242 21.2349C78.8439 21.2349 77.8875 20.8203 77.0975 19.9658L76.9119 19.7664V24.9822H73.6557H73.6589ZM77.123 25.1943H73.4446V11.4584H76.9823V12.4269C77.8236 11.5027 78.748 11.1039 80.0242 11.1039C82.7527 11.1039 84.5855 13.1801 84.5855 16.266C84.5855 19.3518 82.6663 21.447 80.0242 21.447C78.8727 21.447 77.9227 21.0703 77.123 20.2981V25.1974V25.1943ZM73.5533 10.8602H76.8799C77.0975 10.8602 77.299 10.9552 77.4365 11.1261L77.4973 11.1957L77.5773 11.1482C78.2714 10.7146 79.0742 10.5058 80.0274 10.5058C83.0694 10.5058 85.1901 12.8731 85.1901 16.2628C85.1901 19.6524 83.0182 22.0388 80.0274 22.0388C79.2502 22.0388 78.5273 21.8806 77.8843 21.5609L77.7308 21.4849V25.0866C77.7308 25.4728 77.4141 25.7893 77.0239 25.7893H73.5565C73.1631 25.7893 72.8432 25.4728 72.8432 25.0866V11.5597C72.8432 11.1767 73.1599 10.8634 73.5565 10.8634L73.5533 10.8602ZM77.0207 25.9982H73.5533C73.0415 25.9982 72.6289 25.5899 72.6289 25.0866V11.5597C72.6289 11.0596 73.0415 10.6545 73.5533 10.6545H76.8799C77.1294 10.6545 77.3661 10.7526 77.5389 10.9235C78.2522 10.5026 79.0678 10.2969 80.0274 10.2969C83.1941 10.2969 85.4044 12.7529 85.4044 16.2628C85.4044 19.7727 83.1429 22.2477 80.0274 22.2477C79.2757 22.2477 78.5784 22.1021 77.9419 21.8204V25.0866C77.9419 25.5899 77.5293 25.9982 77.0239 25.9982H77.0207Z" fill="#23325B"/>
<path fill-rule="evenodd" clip-rule="evenodd" d="M91.3896 18.082C90.2957 18.082 90.0686 17.0945 90.0686 16.2685C90.0686 15.6038 90.2413 14.4771 91.3896 14.4771C92.4804 14.4771 92.7107 15.4551 92.7107 16.2685C92.7107 17.0819 92.4804 18.082 91.3896 18.082ZM91.3896 10.4102C86.5629 10.4102 84.8516 13.5688 84.8516 16.2685C84.8516 18.9682 86.5629 22.1489 91.3896 22.1489C96.2164 22.1489 97.9277 18.9808 97.9277 16.2685C97.9277 13.5561 96.2164 10.4102 91.3896 10.4102ZM91.3896 18.8859C92.7747 18.8859 93.5264 17.8288 93.5264 16.2685C93.5264 14.7081 92.7747 13.6764 91.3896 13.6764C90.0046 13.6764 89.2497 14.7271 89.2497 16.2685C89.2497 17.8098 90.0014 18.8859 91.3896 18.8859ZM91.3896 11.2141C87.4329 11.2141 85.6672 13.6194 85.6672 16.2685C85.6672 18.9175 87.4297 21.345 91.3896 21.345C95.3496 21.345 97.1089 18.965 97.1089 16.2685C97.1089 13.5719 95.3464 11.2141 91.3896 11.2141Z" fill="#23325B"/>
<path fill-rule="evenodd" clip-rule="evenodd" d="M91.389 14.5798C90.3846 14.5798 90.1735 15.4945 90.1735 16.2635C90.1735 17.3966 90.5798 17.9726 91.389 17.9726C92.1983 17.9726 92.6045 17.3997 92.6045 16.2635C92.6045 15.1273 92.1951 14.5798 91.389 14.5798ZM91.389 18.1847C90.4678 18.1847 89.9624 17.5042 89.9624 16.2667C89.9624 15.5578 90.1479 14.3709 91.389 14.3709C92.3102 14.3709 92.8156 15.045 92.8156 16.2667C92.8156 17.4884 92.3102 18.1847 91.389 18.1847ZM91.389 13.7791C92.6589 13.7791 93.4202 14.7095 93.4202 16.2667C93.4202 17.8238 92.6589 18.7828 91.389 18.7828C90.1192 18.7828 89.3547 17.8428 89.3547 16.2667C89.3547 14.6906 90.116 13.7791 91.389 13.7791ZM91.389 18.9917C90.004 18.9917 89.1436 17.9473 89.1436 16.2667C89.1436 14.5861 90.004 13.5702 91.389 13.5702C92.7741 13.5702 93.6313 14.6019 93.6313 16.2667C93.6313 17.9315 92.7709 18.9917 91.389 18.9917ZM91.389 11.3167C95.5281 11.3167 97.0027 13.874 97.0027 16.2667C97.0027 18.6594 95.5281 21.2388 91.389 21.2388C87.2499 21.2388 85.7722 18.6721 85.7722 16.2667C85.7722 13.8613 87.2435 11.3167 91.389 11.3167ZM91.389 21.4477C87.09 21.4477 85.561 18.7733 85.561 16.2667C85.561 13.7601 87.0868 11.1047 91.389 11.1047C95.6912 11.1047 97.2138 13.8835 97.2138 16.2667C97.2138 18.7733 95.6848 21.4477 91.389 21.4477ZM91.389 10.5097C96.1359 10.5097 97.8216 13.6113 97.8216 16.2667C97.8216 18.9221 96.1359 22.0427 91.389 22.0427C86.6422 22.0427 84.9565 18.9316 84.9565 16.2667C84.9565 13.6018 86.639 10.5097 91.389 10.5097ZM91.389 22.2516C86.4823 22.2516 84.7422 19.0265 84.7422 16.2667C84.7422 13.5069 86.4823 10.3008 91.389 10.3008C96.2958 10.3008 98.0327 13.5164 98.0327 16.2667C98.0327 19.017 96.2926 22.2516 91.389 22.2516Z" fill="#23325B"/>
<path fill-rule="evenodd" clip-rule="evenodd" d="M109.067 10.7617H105.74C105.465 10.7617 105.212 10.8978 105.065 11.1162L103.098 13.99V11.5624C103.098 11.1225 102.73 10.7617 102.282 10.7617H98.8118C98.3607 10.7617 97.9961 11.1225 97.9961 11.5624V20.9971C97.9961 21.4402 98.3607 21.801 98.8118 21.801H102.18C102.458 21.801 102.714 21.6649 102.864 21.4339L104.79 18.5158V20.9971C104.79 21.4402 105.158 21.801 105.606 21.801H109.07C109.521 21.801 109.886 21.4402 109.886 20.9971V11.5624C109.886 11.1225 109.518 10.7617 109.07 10.7617H109.067ZM109.067 11.5624V20.9971H105.603V15.8003L102.177 20.9971H98.8086V11.5624H102.279V16.6232L105.74 11.5624H109.067Z" fill="#23325B"/>
<path fill-rule="evenodd" clip-rule="evenodd" d="M105.714 20.8878H108.964V11.6651H105.8L102.176 16.9601V11.6651H98.9199V20.8878H102.122L105.714 15.4441V20.8878ZM109.175 21.0967H105.5V16.1467L102.237 21.0967H98.7056V11.4562H102.384V16.2733L105.682 11.4562H109.172V21.0967H109.175ZM104.895 18.1596L102.777 21.3752C102.646 21.5746 102.422 21.6948 102.179 21.6948H98.8111C98.4209 21.6948 98.101 21.3815 98.101 20.9954V11.5607C98.101 11.1777 98.4209 10.8644 98.8111 10.8644H102.282C102.675 10.8644 102.992 11.1777 102.992 11.5607V14.33L105.154 11.1714C105.282 10.9815 105.503 10.8644 105.743 10.8644H109.069C109.463 10.8644 109.779 11.1777 109.779 11.5607V20.9954C109.779 21.3815 109.46 21.6948 109.069 21.6948H105.605C105.212 21.6948 104.895 21.3815 104.895 20.9954V18.1596ZM109.069 21.9005H105.605C105.097 21.9005 104.681 21.4923 104.681 20.9922V18.8654L102.953 21.4859C102.781 21.7455 102.49 21.9005 102.176 21.9005H98.8079C98.2993 21.9005 97.8867 21.4923 97.8867 20.9922V11.5575C97.8867 11.0575 98.2993 10.6523 98.8079 10.6523H102.278C102.787 10.6523 103.203 11.0575 103.203 11.5575V13.6432L104.975 11.0543C105.145 10.8043 105.429 10.6555 105.739 10.6555H109.066C109.578 10.6555 109.99 11.0606 109.99 11.5607V20.9954C109.99 21.4954 109.578 21.9037 109.066 21.9037L109.069 21.9005Z" fill="#23325B"/>
<path fill-rule="evenodd" clip-rule="evenodd" d="M118.767 10.7617H110.319C109.865 10.7617 109.5 11.1225 109.5 11.5624V14.0248C109.5 14.471 109.868 14.8287 110.319 14.8287H111.995V20.994C111.995 21.4371 112.363 21.7979 112.814 21.7979H116.275C116.729 21.7979 117.094 21.4371 117.094 20.994V14.8287H118.77C119.224 14.8287 119.589 14.4679 119.589 14.0248V11.5624C119.589 11.1225 119.224 10.7617 118.77 10.7617H118.767ZM118.767 11.5624V14.0248H116.272V20.9971H112.811V14.0248H110.316V11.5624H118.763H118.767Z" fill="#23325B"/>
<path fill-rule="evenodd" clip-rule="evenodd" d="M112.916 20.8878H116.165V13.9186H118.66V11.6651H110.424V13.9186H112.916V20.8878ZM116.377 21.0967H112.701V14.1274H110.209V11.4562H118.868V14.1274H116.377V21.0967ZM110.315 10.8612H118.763C119.156 10.8612 119.476 11.1746 119.476 11.5575V14.0198C119.476 14.406 119.156 14.7193 118.763 14.7193H116.981V20.989C116.981 21.3752 116.661 21.6885 116.271 21.6885H112.81C112.417 21.6885 112.1 21.3752 112.1 20.989V14.7193H110.318C109.925 14.7193 109.605 14.406 109.605 14.0198V11.5575C109.605 11.1746 109.925 10.8612 110.318 10.8612H110.315ZM116.271 21.9005H112.81C112.298 21.9005 111.886 21.4923 111.886 20.9922V14.9313H110.315C109.806 14.9313 109.391 14.5231 109.391 14.0198V11.5575C109.391 11.0575 109.806 10.6523 110.315 10.6523H118.763C119.271 10.6523 119.687 11.0575 119.687 11.5575V14.0198C119.687 14.5231 119.271 14.9313 118.763 14.9313H117.192V20.9922C117.192 21.4923 116.776 21.9005 116.268 21.9005H116.271Z" fill="#23325B"/>
<path fill-rule="evenodd" clip-rule="evenodd" d="M123.709 17.8305H125.865C125.852 17.8684 125.839 17.9033 125.829 17.9444C125.727 18.3938 125.212 18.4888 124.806 18.4888C124.438 18.4888 124.147 18.378 123.933 18.1659C123.84 18.071 123.769 17.9634 123.709 17.8336V17.8305ZM124 14.368C124.182 14.1845 124.435 14.061 124.764 14.061C125.135 14.061 125.388 14.1939 125.551 14.368H124ZM124.764 10.4055C121.127 10.4055 118.684 12.7602 118.684 16.2638C118.684 19.7674 121.143 22.1443 124.806 22.1443C128.468 22.1443 130.138 20.0966 130.727 18.3812C130.813 18.1343 130.768 17.8621 130.615 17.6532C130.608 17.6374 130.599 17.6247 130.586 17.6152C130.739 17.4728 130.835 17.2734 130.845 17.0551C130.883 16.1056 130.791 13.7224 129.156 12.0449C128.091 10.9562 126.613 10.4023 124.764 10.4023V10.4055ZM122.823 15.1719H126.706C126.642 14.1971 126.009 13.2603 124.761 13.2603C123.594 13.2603 122.883 14.1591 122.819 15.1719H122.823ZM124.764 11.2094C121.502 11.2094 119.499 13.2824 119.499 16.2638C119.499 19.568 121.834 21.3404 124.806 21.3404C125.638 21.3404 128.846 21.3404 129.956 18.1216H126.626C126.45 18.8812 125.753 19.2927 124.806 19.2927C123.421 19.2927 122.708 18.2166 122.746 17.0266H130.029C130.112 14.9187 129.322 11.2094 124.764 11.2094Z" fill="#23325B"/>
<path fill-rule="evenodd" clip-rule="evenodd" d="M124.326 14.2625H125.235C124.979 14.1423 124.601 14.1296 124.326 14.2625ZM125.801 14.4714H123.747L123.926 14.2942C124.147 14.0726 124.438 13.9555 124.768 13.9555C125.129 13.9555 125.417 14.0695 125.631 14.2942L125.801 14.4714ZM122.941 15.0696C123.037 14.2277 123.632 13.3637 124.768 13.3637C125.903 13.3637 126.498 14.2056 126.594 15.0696H122.941ZM126.821 15.2753H122.711L122.717 15.1646C122.778 14.1961 123.443 13.1548 124.764 13.1548C126.085 13.1548 126.751 14.1613 126.812 15.1646L126.818 15.2753H126.821ZM123.888 17.9307C123.926 17.9908 123.965 18.0415 124.009 18.0858C124.205 18.282 124.467 18.3801 124.806 18.3801C125.174 18.3801 125.628 18.301 125.721 17.9307H123.888ZM124.806 18.589C124.413 18.589 124.093 18.4688 123.859 18.2345C123.766 18.1396 123.686 18.0225 123.613 17.8706L123.542 17.7218H126.018L125.964 17.8611C125.951 17.8927 125.941 17.9275 125.935 17.9624C125.846 18.3675 125.442 18.589 124.809 18.589H124.806ZM124.764 11.3128C126.354 11.3128 127.608 11.7717 128.491 12.6769C129.828 14.0473 129.946 16.0317 129.924 16.9211H122.644V17.0224C122.618 17.7187 122.845 18.3611 123.267 18.7916C123.654 19.1904 124.185 19.3961 124.803 19.3961C125.788 19.3961 126.495 18.9593 126.706 18.2251H129.802C129.057 20.2221 127.378 21.2349 124.803 21.2349C121.646 21.2349 119.605 19.2853 119.605 16.2628C119.605 13.2403 121.63 11.3128 124.764 11.3128ZM124.806 21.4438C121.518 21.4438 119.394 19.4119 119.394 16.2628C119.394 13.1137 121.502 11.1008 124.764 11.1008C126.415 11.1008 127.72 11.585 128.644 12.5313C130.093 14.0157 130.167 16.171 130.135 17.0287V17.13H122.852C122.852 17.7282 123.059 18.2757 123.424 18.6492C123.77 19.0005 124.249 19.184 124.806 19.184C125.737 19.184 126.364 18.7884 126.524 18.0953L126.543 18.013H130.103L130.055 18.1523C129.537 19.6524 128.206 21.4438 124.806 21.4438ZM124.764 10.5058C126.584 10.5058 128.037 11.0501 129.079 12.1199C130.692 13.772 130.778 16.1204 130.739 17.054C130.736 17.2376 130.656 17.4117 130.516 17.5383L130.455 17.6364L130.532 17.7155C130.666 17.8959 130.701 18.1364 130.628 18.3485C130.045 20.0354 128.568 22.042 124.806 22.042C121.044 22.042 118.792 19.7221 118.792 16.266C118.792 12.8098 121.195 10.5089 124.768 10.5089L124.764 10.5058ZM124.806 22.2477C121.083 22.2477 118.578 19.8423 118.578 16.2628C118.578 12.6832 121.063 10.2969 124.764 10.2969C126.645 10.2969 128.149 10.8602 129.233 11.9743C130.899 13.6865 130.989 16.1014 130.951 17.0604C130.944 17.2692 130.864 17.4655 130.723 17.6237C130.877 17.8484 130.919 18.1428 130.826 18.4118C130.221 20.162 128.689 22.2477 124.803 22.2477H124.806Z" fill="#23325B"/>
<path fill-rule="evenodd" clip-rule="evenodd" d="M141.851 10.7617H132.843C132.392 10.7617 132.028 11.1225 132.028 11.5624V16.9523C132.028 17.81 131.804 17.81 131.5 17.81C131.356 17.81 131.241 17.7942 131.141 17.7657C131.065 17.7436 130.985 17.7341 130.905 17.7341C130.729 17.7341 130.563 17.7847 130.422 17.8892C130.211 18.0443 130.086 18.2816 130.086 18.5411V21.0003C130.086 21.3959 130.38 21.7377 130.78 21.7947L131.007 21.8327C131.474 21.9055 132.181 22.0194 132.722 22.0194C134.666 22.0194 136.982 21.2978 136.982 17.8512V14.7147H137.564V21.0003C137.564 21.4434 137.929 21.8042 138.383 21.8042H141.847C142.298 21.8042 142.666 21.4434 142.666 21.0003V11.5656C142.666 11.1257 142.298 10.7649 141.847 10.7649L141.851 10.7617ZM141.851 11.5624V20.9971H138.386V13.9077H136.17V17.848C136.17 19.0475 135.975 21.2124 132.725 21.2124C132.152 21.2124 131.301 21.0573 130.905 21.0003V18.5411C131.1 18.5981 131.301 18.6171 131.5 18.6171C132.133 18.6171 132.843 18.4019 132.843 16.9555V11.5656H141.851V11.5624Z" fill="#23325B"/>
<path fill-rule="evenodd" clip-rule="evenodd" d="M131.007 20.9043C131.058 20.9138 131.113 20.9202 131.17 20.9297C131.605 20.9993 132.261 21.1069 132.722 21.1069C135.712 21.1069 136.058 19.2459 136.058 17.847V13.8022H138.489V20.8917H141.742V11.669H132.946V16.9513C132.946 18.1413 132.472 18.7174 131.497 18.7174C131.318 18.7174 131.158 18.7015 131.007 18.6699V20.9043ZM132.722 21.3126C132.242 21.3126 131.573 21.2082 131.135 21.1354C131.042 21.1227 130.956 21.1069 130.886 21.0942L130.796 21.0816V18.3945L130.93 18.4325C131.097 18.4832 131.282 18.5053 131.493 18.5053C132.069 18.5053 132.731 18.3312 132.731 16.9482V11.457H141.953V21.0974H138.275V14.0079H136.269V17.8438C136.269 18.7015 136.269 21.3126 132.719 21.3126H132.722ZM130.902 17.8343C130.972 17.8343 131.042 17.8438 131.106 17.8628C131.215 17.8945 131.343 17.9103 131.493 17.9103C131.874 17.9103 132.127 17.8438 132.127 16.9482V11.5583C132.127 11.1753 132.447 10.862 132.837 10.862H141.844C142.238 10.862 142.558 11.1753 142.558 11.5583V20.993C142.558 21.3791 142.238 21.6924 141.844 21.6924H138.38C137.987 21.6924 137.667 21.3791 137.667 20.993V14.6029H136.874V17.8407C136.874 21.1987 134.615 21.9045 132.719 21.9045C132.168 21.9045 131.449 21.7874 131.02 21.7209L130.79 21.6829C130.444 21.6323 130.185 21.3348 130.185 20.9898V18.5306C130.185 18.3059 130.294 18.097 130.476 17.9641C130.595 17.8755 130.742 17.828 130.895 17.828L130.902 17.8343ZM132.722 22.1165C132.156 22.1165 131.426 21.9994 130.988 21.9298L130.761 21.895C130.316 21.8285 129.98 21.4424 129.98 20.9961V18.537C129.98 18.2489 130.121 17.9736 130.355 17.8027C130.579 17.6349 130.892 17.578 131.17 17.6634C131.26 17.6888 131.366 17.7014 131.497 17.7014C131.769 17.7014 131.916 17.7014 131.916 16.9513V11.5614C131.916 11.0614 132.328 10.6562 132.84 10.6562H141.848C142.356 10.6562 142.772 11.0614 142.772 11.5614V20.9961C142.772 21.4962 142.356 21.9045 141.848 21.9045H138.383C137.872 21.9045 137.459 21.4962 137.459 20.9961V14.815H137.088V17.847C137.088 21.3759 134.715 22.1197 132.722 22.1197V22.1165Z" fill="#23325B"/>
<path fill-rule="evenodd" clip-rule="evenodd" d="M148.349 17.7024H148.678C148.793 17.7024 148.931 17.7246 148.931 17.829C148.931 17.9461 148.931 17.9999 148.678 17.9999H148.349V17.6993V17.7024ZM147.53 10.7617H144.069C143.618 10.7617 143.25 11.1225 143.25 11.5624V20.9971C143.25 21.4402 143.618 21.801 144.069 21.801H149.631C152.098 21.801 153.889 20.1648 153.889 17.9145C153.889 16.063 152.776 13.9045 149.631 13.9045H148.349V11.5624C148.349 11.1225 147.984 10.7617 147.53 10.7617ZM147.53 18.807H148.678C149.545 18.807 149.747 18.2057 149.747 17.829C149.747 17.2277 149.251 16.8954 148.678 16.8954H147.53V18.807ZM147.53 11.5624H144.069V20.9971H149.631C151.605 20.9971 153.07 19.7818 153.07 17.9145C153.07 16.3668 152.162 14.7116 149.631 14.7116H147.53V11.5624Z" fill="#23325B"/>
<path fill-rule="evenodd" clip-rule="evenodd" d="M148.455 17.8937H148.682C148.804 17.8937 148.832 17.8779 148.836 17.8779C148.836 17.8747 148.829 17.8494 148.829 17.8273C148.829 17.8273 148.797 17.8051 148.682 17.8051H148.455V17.8969V17.8937ZM148.682 18.1026H148.244V17.5931H148.682C149.005 17.5931 149.04 17.7576 149.04 17.8273C149.04 18.0362 148.954 18.1026 148.682 18.1026ZM147.639 18.7008V16.9981H148.682C149.162 16.9981 149.645 17.2544 149.645 17.8304C149.645 18.033 149.575 18.704 148.682 18.704H147.639V18.7008ZM148.682 18.9097H147.428V16.7892H148.682C149.376 16.7892 149.859 17.2164 149.859 17.8273C149.859 18.3242 149.552 18.9097 148.682 18.9097ZM144.175 20.8878V11.6651H147.425V14.8111H149.632C152.092 14.8111 152.965 16.4125 152.965 17.9096C152.965 19.6629 151.596 20.8846 149.632 20.8846H144.175V20.8878ZM149.632 21.0967H143.964V11.4562H147.639V14.6022H149.632C152.249 14.6022 153.179 16.3113 153.179 17.9096C153.179 19.7864 151.721 21.0967 149.632 21.0967ZM144.073 10.8612H147.534C147.927 10.8612 148.244 11.1746 148.244 11.5575V14.004H149.632C152.696 14.004 153.784 16.1087 153.784 17.9096C153.784 20.0997 152.038 21.6917 149.632 21.6917H144.073C143.679 21.6917 143.36 21.3783 143.36 20.9922V11.5575C143.36 11.1746 143.679 10.8612 144.073 10.8612ZM149.632 21.9005H144.073C143.564 21.9005 143.148 21.4923 143.148 20.9922V11.5575C143.148 11.0575 143.564 10.6523 144.073 10.6523H147.534C148.042 10.6523 148.458 11.0575 148.458 11.5575V13.7951H149.635C152.856 13.7951 153.998 16.0138 153.998 17.9127C153.998 20.2263 152.165 21.9037 149.635 21.9037L149.632 21.9005Z" fill="#23325B"/>
<path fill-rule="evenodd" clip-rule="evenodd" d="M164.793 10.7617H161.329C160.878 10.7617 160.513 11.1225 160.513 11.5624V14.0754H158.959V11.5624C158.959 11.1225 158.597 10.7617 158.143 10.7617H154.676C154.225 10.7617 153.863 11.1225 153.863 11.5624V20.9971C153.863 21.4402 154.225 21.801 154.676 21.801H158.143C158.594 21.801 158.959 21.4402 158.959 20.9971V18.0348H160.513V20.9971C160.513 21.4402 160.878 21.801 161.329 21.801H164.793C165.244 21.801 165.606 21.4402 165.606 20.9971V11.5624C165.606 11.1225 165.244 10.7617 164.793 10.7617ZM164.793 11.5624V20.9971H161.329V17.2277H158.143V20.9971H154.676V11.5624H158.143V14.8793H161.329V11.5624H164.793Z" fill="#23325B"/>
<path fill-rule="evenodd" clip-rule="evenodd" d="M161.439 20.8878H164.692V11.6651H161.439V14.9851H158.042V11.6651H154.788V20.8878H158.042V17.1183H161.439V20.8878ZM164.903 21.0967H161.227V17.3272H158.253V21.0967H154.574V11.4562H158.253V14.7731H161.227V11.4562H164.903V21.0967ZM158.857 17.9254V20.9922C158.857 21.3783 158.537 21.6917 158.147 21.6917H154.68C154.289 21.6917 153.973 21.3783 153.973 20.9922V11.5575C153.973 11.1746 154.289 10.8612 154.68 10.8612H158.147C158.537 10.8612 158.857 11.1746 158.857 11.5575V14.1749H160.626V11.5575C160.626 11.1746 160.943 10.8612 161.333 10.8612H164.797C165.187 10.8612 165.507 11.1746 165.507 11.5575V20.9922C165.507 21.3783 165.187 21.6917 164.797 21.6917H161.333C160.943 21.6917 160.626 21.3783 160.626 20.9922V17.9254H158.857ZM164.797 21.9005H161.333C160.824 21.9005 160.412 21.4923 160.412 20.9922V18.1343H159.068V20.9922C159.068 21.4923 158.656 21.9005 158.147 21.9005H154.68C154.174 21.9005 153.762 21.4923 153.762 20.9922V11.5575C153.762 11.0575 154.174 10.6523 154.68 10.6523H158.147C158.656 10.6523 159.068 11.0575 159.068 11.5575V13.966H160.412V11.5575C160.412 11.0575 160.824 10.6523 161.333 10.6523H164.797C165.306 10.6523 165.718 11.0575 165.718 11.5575V20.9922C165.718 21.4923 165.306 21.9005 164.797 21.9005Z" fill="#23325B"/>
<path fill-rule="evenodd" clip-rule="evenodd" d="M172.142 17.7299C170.987 17.7299 170.897 16.6127 170.897 16.2646C170.897 15.9164 170.987 14.8277 172.142 14.8277C172.932 14.8277 173.402 15.3625 173.402 16.2646C173.402 17.1666 172.932 17.7299 172.142 17.7299ZM170.952 10.4062C167.331 10.4062 165.684 13.4478 165.684 16.2646C165.684 19.6764 167.9 22.145 170.952 22.145C171.87 22.145 172.717 21.9203 173.444 21.4962C173.597 21.6798 173.824 21.7969 174.08 21.7969H177.41C177.861 21.7969 178.229 21.4361 178.229 20.993V11.5583C178.229 11.1184 177.861 10.7576 177.41 10.7576H174.08C173.824 10.7576 173.604 10.8715 173.453 11.0487C172.746 10.6088 171.927 10.4062 170.955 10.4062H170.952ZM172.142 18.537C173.367 18.537 174.218 17.6571 174.218 16.2646C174.218 14.872 173.364 14.0238 172.142 14.0238C170.696 14.0238 170.082 15.1758 170.082 16.2646C170.082 17.3533 170.715 18.537 172.142 18.537ZM170.952 11.2101C167.785 11.2101 166.499 13.8877 166.499 16.2646C166.499 19.4485 168.518 21.3411 170.952 21.3411C172.356 21.3411 173.405 20.7398 174.08 19.8789V20.9898H177.41V11.5551H174.08V12.704C173.229 11.6374 172.276 11.2038 170.952 11.2038V11.2101Z" fill="#23325B"/>
<path fill-rule="evenodd" clip-rule="evenodd" d="M172.142 14.9335C171.115 14.9335 171.003 15.8672 171.003 16.2628C171.003 16.6584 171.115 17.6237 172.142 17.6237C172.874 17.6237 173.293 17.13 173.293 16.2628C173.293 15.3956 172.874 14.9335 172.142 14.9335ZM172.142 17.8326C170.888 17.8326 170.792 16.6331 170.792 16.2628C170.792 15.519 171.147 14.7215 172.142 14.7215C172.996 14.7215 173.504 15.3006 173.504 16.2628C173.504 17.2249 172.996 17.8326 172.142 17.8326ZM172.142 14.1265C173.319 14.1265 174.112 14.9842 174.112 16.2628C174.112 17.5414 173.338 18.4276 172.142 18.4276C170.699 18.4276 170.187 17.2629 170.187 16.2628C170.187 15.1962 170.792 14.1265 172.142 14.1265ZM172.142 18.6365C170.645 18.6365 169.976 17.4433 169.976 16.2628C169.976 15.0823 170.645 13.9176 172.142 13.9176C173.447 13.9176 174.323 14.8607 174.323 16.2628C174.323 17.6649 173.447 18.6365 172.142 18.6365ZM170.952 11.3128C172.27 11.3128 173.181 11.7496 173.997 12.7719L174.186 13.0092V11.6641H177.304V20.8868H174.186V19.5733L173.997 19.817C173.488 20.4627 172.548 21.2381 170.952 21.2381C168.393 21.2381 166.605 19.1935 166.605 16.266C166.605 13.8005 167.948 11.316 170.952 11.316V11.3128ZM170.952 21.4438C168.268 21.4438 166.394 19.317 166.394 16.2628C166.394 13.696 167.801 11.1008 170.952 11.1008C172.241 11.1008 173.162 11.4996 173.975 12.4174V11.4552H177.519V21.0957H173.975V20.1683C173.405 20.795 172.452 21.4438 170.952 21.4438ZM170.952 10.5058C171.915 10.5058 172.711 10.7115 173.396 11.1356L173.476 11.1862L173.536 11.1166C173.674 10.9552 173.872 10.8602 174.083 10.8602H177.413C177.807 10.8602 178.127 11.1736 178.127 11.5565V20.9912C178.127 21.3773 177.807 21.6907 177.413 21.6907H174.083C173.869 21.6907 173.668 21.5926 173.53 21.428L173.472 21.3552L173.396 21.4027C172.676 21.8236 171.857 22.0356 170.958 22.0356C167.968 22.0356 165.799 19.6081 165.799 16.2596C165.799 13.4871 167.414 10.5026 170.958 10.5026L170.952 10.5058ZM170.952 22.2477C167.836 22.2477 165.578 19.7316 165.578 16.2628C165.578 13.389 167.261 10.2969 170.952 10.2969C171.918 10.2969 172.73 10.4994 173.431 10.914C173.607 10.7463 173.837 10.6545 174.08 10.6545H177.41C177.919 10.6545 178.334 11.0596 178.334 11.5597V20.9944C178.334 21.4944 177.919 21.9027 177.41 21.9027H174.08C173.831 21.9027 173.597 21.8046 173.421 21.6305C172.689 22.042 171.86 22.2509 170.952 22.2509V22.2477Z" fill="#23325B"/>
<path fill-rule="evenodd" clip-rule="evenodd" d="M183.315 15.066C183.315 15.066 183.289 15.0186 183.289 14.8666C183.289 14.6578 183.289 14.5596 183.718 14.5596H184.073V15.1388H183.718C183.455 15.1388 183.34 15.0882 183.315 15.0692V15.066ZM188.349 10.7617H182.806C180.042 10.7617 178.328 12.2556 178.328 14.6514C178.328 16.2212 179.054 17.4967 180.228 18.1234L178.408 20.5129C178.226 20.7566 178.194 21.0826 178.331 21.3579C178.469 21.627 178.75 21.801 179.06 21.801H182.665C182.944 21.801 183.203 21.6618 183.353 21.4276L184.07 20.323V20.9971C184.07 21.4402 184.431 21.801 184.882 21.801H188.343C188.797 21.801 189.159 21.4402 189.159 20.9971V11.5624C189.159 11.1225 188.794 10.7617 188.343 10.7617H188.349ZM183.718 15.9427H184.888V13.7589H183.718C183.347 13.7589 182.47 13.8317 182.47 14.8666C182.47 15.6294 182.924 15.9427 183.718 15.9427ZM188.349 11.5624H182.806C180.845 11.5624 179.144 12.4233 179.144 14.6514C179.144 16.3099 180.097 17.522 181.559 17.7183L179.064 21.0003H182.669L184.61 17.9904H184.888V21.0003H188.349V11.5656V11.5624Z" fill="#23325B"/>
<path fill-rule="evenodd" clip-rule="evenodd" d="M183.405 14.9905C183.447 15.0064 183.543 15.0285 183.719 15.0285H183.968V14.6614H183.719C183.395 14.6614 183.395 14.6804 183.395 14.8639C183.395 14.9272 183.399 14.9684 183.405 14.9905ZM184.179 15.2406H183.719C183.463 15.2406 183.312 15.1931 183.252 15.1488L183.223 15.114C183.213 15.095 183.188 15.0254 183.188 14.8639C183.188 14.5728 183.261 14.4525 183.722 14.4525H184.182V15.2406H184.179ZM183.719 13.8607H184.784V15.8356H183.719C182.941 15.8356 182.58 15.5286 182.58 14.8639C182.58 14.1993 182.964 13.8607 183.719 13.8607ZM184.995 16.0476H183.719C182.82 16.0476 182.365 15.6488 182.365 14.8671C182.365 14.0854 182.845 13.6518 183.719 13.6518H184.995V16.0476ZM184.995 20.8932V17.8833H184.55L182.609 20.8932H179.276L181.755 17.6396L181.575 17.6143C180.162 17.4275 179.247 16.2628 179.247 14.6519C179.247 11.9617 181.735 11.6705 182.804 11.6705H188.238V20.8932H184.988H184.995ZM188.456 21.102H184.784V18.0953H184.669L182.727 21.102H178.853L181.371 17.7915C179.947 17.5193 179.039 16.304 179.039 14.6487C179.039 12.6516 180.449 11.4585 182.807 11.4585H188.456V21.0989V21.102ZM184.179 19.969L183.264 21.3742C183.133 21.5768 182.909 21.6971 182.669 21.6971H179.064C178.799 21.6971 178.549 21.5451 178.431 21.3109C178.31 21.0736 178.332 20.7887 178.495 20.5735L180.389 18.089L180.28 18.0289C179.125 17.4117 178.434 16.1489 178.434 14.6487C178.434 12.3162 180.11 10.8666 182.807 10.8666H188.35C188.74 10.8666 189.06 11.1799 189.06 11.5629V20.9976C189.06 21.3837 188.74 21.6971 188.35 21.6971H184.889C184.499 21.6971 184.182 21.3837 184.182 20.9976V19.969H184.179ZM188.35 21.9059H184.889C184.384 21.9059 183.968 21.4977 183.968 20.9976V20.6811L183.447 21.485C183.277 21.7477 182.986 21.9059 182.669 21.9059H179.064C178.719 21.9059 178.396 21.7097 178.239 21.4059C178.082 21.102 178.114 20.7349 178.322 20.4532L180.072 18.1586C178.911 17.4877 178.22 16.1837 178.22 14.6551C178.22 12.1927 179.976 10.6641 182.804 10.6641H188.347C188.856 10.6641 189.268 11.0692 189.268 11.5692V21.0039C189.268 21.504 188.856 21.9123 188.347 21.9123L188.35 21.9059Z" fill="#23325B"/>
<path fill-rule="evenodd" clip-rule="evenodd" d="M205.777 10.7617H201.535C201.276 10.7617 201.033 10.8852 200.88 11.0877L199.463 12.9708V11.5624C199.463 11.1225 199.095 10.7617 198.644 10.7617H195.183C194.732 10.7617 194.367 11.1225 194.367 11.5624V20.9971C194.367 21.4402 194.732 21.801 195.183 21.801H198.644C199.095 21.801 199.463 21.4402 199.463 20.9971V19.2786L201.097 21.4687C201.248 21.6808 201.497 21.801 201.756 21.801H206.129C206.445 21.801 206.736 21.6206 206.871 21.3358C207.005 21.0541 206.96 20.7155 206.756 20.4749L202.917 16.006L206.362 12.1258C206.506 11.9802 206.599 11.7808 206.599 11.5624C206.599 11.1225 206.231 10.7617 205.78 10.7617H205.777ZM205.77 11.5624L201.83 15.9965L206.125 20.9971H201.753L198.644 16.8194V20.9971H195.183V11.5624H198.644V15.4142L201.535 11.5624H205.77Z" fill="#23325B"/>
<path fill-rule="evenodd" clip-rule="evenodd" d="M201.808 20.8878H205.899L201.693 15.9916L205.538 11.6683H201.591L198.539 15.7289V11.6683H195.289V20.8909H198.539V16.498L201.808 20.8909V20.8878ZM206.357 21.0967H201.703L198.75 17.1341V21.0967H195.078V11.4562H198.75V15.0896L201.485 11.4562H206.005L201.974 15.9916L206.357 21.0967ZM199.358 18.954V20.9922C199.358 21.3783 199.038 21.6917 198.648 21.6917H195.187C194.797 21.6917 194.477 21.3783 194.477 20.9922V11.5575C194.477 11.1746 194.797 10.8612 195.187 10.8612H198.648C199.038 10.8612 199.358 11.1746 199.358 11.5575V13.2824L200.967 11.1429C201.098 10.9657 201.315 10.8612 201.539 10.8612H205.781C206.174 10.8612 206.491 11.1746 206.491 11.5575C206.491 11.7411 206.417 11.9183 206.28 12.0512L202.774 16.0011L206.673 20.5365C206.849 20.7453 206.891 21.0397 206.779 21.2834C206.66 21.5303 206.405 21.6917 206.129 21.6917H201.757C201.527 21.6917 201.316 21.5809 201.184 21.4037L199.358 18.954ZM206.129 21.9005H201.757C201.459 21.9005 201.178 21.7645 201.012 21.5239L199.572 19.5933V20.9922C199.572 21.4923 199.156 21.9005 198.648 21.9005H195.187C194.678 21.9005 194.266 21.4923 194.266 20.9922V11.5575C194.266 11.0575 194.678 10.6523 195.187 10.6523H198.648C199.156 10.6523 199.572 11.0575 199.572 11.5575V12.6494L200.797 11.0195C200.97 10.7884 201.248 10.6523 201.539 10.6523H205.781C206.293 10.6523 206.702 11.0575 206.702 11.5575C206.702 11.7949 206.606 12.0291 206.437 12.1968L203.056 16.0043L206.84 20.4067C207.07 20.6789 207.121 21.0587 206.971 21.3752C206.824 21.6948 206.491 21.9037 206.133 21.9037L206.129 21.9005Z" fill="#23325B"/>
<path fill-rule="evenodd" clip-rule="evenodd" d="M212.227 18.082C211.133 18.082 210.906 17.0945 210.906 16.2685C210.906 15.6038 211.075 14.4771 212.227 14.4771C213.379 14.4771 213.548 15.6038 213.548 16.2685C213.548 17.0945 213.315 18.082 212.227 18.082ZM212.227 10.4102C207.403 10.4102 205.695 13.5688 205.695 16.2685C205.695 18.9682 207.403 22.1489 212.227 22.1489C217.051 22.1489 218.768 18.9808 218.768 16.2685C218.768 13.5561 217.054 10.4102 212.227 10.4102ZM212.227 18.8859C213.615 18.8859 214.367 17.8288 214.367 16.2685C214.367 14.7081 213.615 13.6764 212.227 13.6764C210.839 13.6764 210.087 14.7271 210.087 16.2685C210.087 17.8098 210.842 18.8859 212.227 18.8859ZM212.227 11.2141C208.267 11.2141 206.505 13.6194 206.505 16.2685C206.505 18.9175 208.27 21.345 212.227 21.345C216.184 21.345 217.949 18.965 217.949 16.2685C217.949 13.5719 216.19 11.2141 212.227 11.2141Z" fill="#23325B"/>
<path fill-rule="evenodd" clip-rule="evenodd" d="M212.226 14.5798C211.222 14.5798 211.014 15.4945 211.014 16.2635C211.014 17.3966 211.424 17.9726 212.226 17.9726C213.231 17.9726 213.442 17.0453 213.442 16.2635C213.442 15.4818 213.231 14.5798 212.226 14.5798ZM212.226 18.1847C211.305 18.1847 210.797 17.5042 210.797 16.2667C210.797 15.5578 210.982 14.3709 212.226 14.3709C213.471 14.3709 213.656 15.5578 213.656 16.2667C213.656 17.5042 213.151 18.1847 212.226 18.1847ZM212.226 13.7791C213.499 13.7791 214.261 14.7095 214.261 16.2667C214.261 17.8238 213.499 18.7828 212.226 18.7828C210.953 18.7828 210.195 17.8428 210.195 16.2667C210.195 14.6906 210.953 13.7791 212.226 13.7791ZM212.226 18.9917C210.841 18.9917 209.984 17.9473 209.984 16.2667C209.984 14.5861 210.841 13.5702 212.226 13.5702C213.611 13.5702 214.472 14.6019 214.472 16.2667C214.472 17.9315 213.611 18.9917 212.226 18.9917ZM212.226 11.3167C216.365 11.3167 217.843 13.874 217.843 16.2667C217.843 18.6594 216.369 21.2388 212.226 21.2388C208.084 21.2388 206.61 18.6721 206.61 16.2667C206.61 13.8613 208.087 11.3167 212.226 11.3167ZM212.226 21.4477C207.927 21.4477 206.398 18.7733 206.398 16.2667C206.398 13.7601 207.924 11.1047 212.226 11.1047C216.529 11.1047 218.054 13.8835 218.054 16.2667C218.054 18.7733 216.522 21.4477 212.226 21.4477ZM212.226 10.5097C216.976 10.5097 218.659 13.6113 218.659 16.2667C218.659 18.9221 216.973 22.0427 212.226 22.0427C207.48 22.0427 205.8 18.9316 205.8 16.2667C205.8 13.6018 207.483 10.5097 212.226 10.5097ZM212.226 22.2516C207.326 22.2516 205.586 19.0265 205.586 16.2667C205.586 13.5069 207.326 10.3008 212.226 10.3008C217.127 10.3008 218.87 13.5164 218.87 16.2667C218.87 19.017 217.13 22.2516 212.226 22.2516Z" fill="#23325B"/>
<path fill-rule="evenodd" clip-rule="evenodd" d="M231.826 10.7617H228.083C227.735 10.7617 227.431 10.9769 227.309 11.2966L226.084 14.7432L224.856 11.2998C224.741 10.9801 224.43 10.7617 224.085 10.7617H220.346C219.943 10.7617 219.597 11.0466 219.536 11.4422L218.011 20.8705C217.972 21.1048 218.039 21.3421 218.199 21.5194C218.35 21.6966 218.58 21.801 218.813 21.801H222.102C222.505 21.801 222.844 21.5162 222.905 21.1206L223.237 19.0285L224.066 21.2725C224.187 21.5922 224.494 21.8042 224.837 21.8042H227.328C227.671 21.8042 227.978 21.5953 228.096 21.2757L228.928 19.0285L229.251 21.1174C229.315 21.5194 229.66 21.8042 230.057 21.8042H233.348C233.585 21.8042 233.812 21.6998 233.972 21.5225C234.119 21.3421 234.193 21.1079 234.154 20.8737L232.635 11.4453C232.568 11.0497 232.229 10.7649 231.826 10.7649V10.7617ZM231.826 11.5624L233.351 20.9971H230.06L229.251 15.8003L227.331 20.9971H224.84L222.921 15.8003L222.105 20.9971H218.817L220.346 11.5624H224.085L226.081 17.1676L228.083 11.5624H231.826Z" fill="#23325B"/>
<path fill-rule="evenodd" clip-rule="evenodd" d="M230.152 20.8885H233.225L231.732 11.6659H228.156L226.076 17.483L224.007 11.6659H220.431L218.937 20.8885H222.008L222.871 15.3783L224.909 20.8885H227.25L229.285 15.3783L230.145 20.8885H230.152ZM233.475 21.0974H229.969L229.208 16.2171L227.407 21.0974H224.765L222.964 16.2139L222.196 21.0974H218.697L220.255 11.457H224.164L226.083 16.85L228.008 11.457H231.917L233.475 21.0974ZM228.968 18.6034L227.996 21.2335C227.893 21.5088 227.625 21.6924 227.327 21.6924H224.835C224.535 21.6924 224.266 21.5057 224.164 21.2272L223.191 18.6034L222.798 21.1006C222.743 21.4424 222.449 21.6924 222.1 21.6924H218.812C218.604 21.6924 218.406 21.5975 218.275 21.4455C218.137 21.2905 218.077 21.0847 218.112 20.879L219.638 11.4507C219.689 11.1088 219.983 10.862 220.338 10.862H224.077C224.381 10.862 224.65 11.0519 224.746 11.3304L226.076 15.0492L227.401 11.3304C227.506 11.0487 227.772 10.862 228.076 10.862H231.818C232.167 10.862 232.467 11.112 232.522 11.4507L234.044 20.8822C234.08 21.0784 234.019 21.2841 233.888 21.4455C233.75 21.6038 233.552 21.6924 233.347 21.6924H230.056C229.707 21.6924 229.409 21.4392 229.355 21.0942L228.965 18.6003L228.968 18.6034ZM233.35 21.9013H230.059C229.601 21.9013 229.221 21.5785 229.15 21.129L228.885 19.4421L228.194 21.3063C228.063 21.6608 227.714 21.9013 227.33 21.9013H224.839C224.448 21.9013 224.103 21.6608 223.969 21.3031L223.281 19.4421L223.012 21.1354C222.942 21.5816 222.561 21.9045 222.104 21.9045H218.815C218.547 21.9045 218.288 21.7874 218.118 21.5848C217.939 21.3854 217.862 21.1164 217.907 20.8505L219.436 11.4222C219.503 10.9791 219.887 10.6562 220.348 10.6562H224.087C224.48 10.6562 224.832 10.9031 224.957 11.2639L226.086 14.4257L227.209 11.2639C227.35 10.8936 227.692 10.6594 228.085 10.6594H231.828C232.282 10.6594 232.666 10.9822 232.742 11.4253L234.265 20.8537C234.31 21.1101 234.236 21.3791 234.06 21.5848C233.878 21.7905 233.622 21.9045 233.357 21.9045L233.35 21.9013Z" fill="#23325B"/>
<path fill-rule="evenodd" clip-rule="evenodd" d="M244.711 10.7617H234.734C234.283 10.7617 233.922 11.1225 233.922 11.5624V20.9971C233.922 21.4402 234.287 21.801 234.734 21.801H238.198C238.656 21.801 239.017 21.4402 239.017 20.9971V14.7116H240.434V20.9971C240.434 21.4402 240.796 21.801 241.253 21.801H244.711C245.165 21.801 245.527 21.4402 245.527 20.9971V11.5624C245.527 11.1225 245.165 10.7617 244.711 10.7617ZM244.711 11.5624V20.9971H241.253V13.9077H238.202V20.9971H234.738V11.5624H244.714H244.711Z" fill="#23325B"/>
<path fill-rule="evenodd" clip-rule="evenodd" d="M241.36 20.8878H244.607V11.6651H234.845V20.8878H238.094V13.7983H241.36V20.8878ZM244.818 21.0967H241.149V14.0072H238.309V21.0967H234.633V11.4562H244.818V21.0967ZM238.917 14.6022V20.9922C238.917 21.3783 238.597 21.6917 238.203 21.6917H234.739C234.349 21.6917 234.032 21.3783 234.032 20.9922V11.5575C234.032 11.1746 234.349 10.8612 234.739 10.8612H244.716C245.106 10.8612 245.426 11.1746 245.426 11.5575V20.9922C245.426 21.3783 245.106 21.6917 244.716 21.6917H241.258C240.868 21.6917 240.545 21.3783 240.545 20.9922V14.6022H238.917ZM244.716 21.9005H241.258C240.749 21.9005 240.337 21.4923 240.337 20.9922V14.8111H239.131V20.9922C239.131 21.4923 238.718 21.9005 238.206 21.9005H234.742C234.237 21.9005 233.824 21.4923 233.824 20.9922V11.5575C233.824 11.0575 234.237 10.6523 234.742 10.6523H244.719C245.227 10.6523 245.643 11.0575 245.643 11.5575V20.9922C245.643 21.4923 245.227 21.9005 244.719 21.9005H244.716Z" fill="#23325B"/>
<path fill-rule="evenodd" clip-rule="evenodd" d="M252.063 17.7299C250.911 17.7299 250.819 16.6127 250.819 16.2646C250.819 15.9164 250.908 14.8277 252.063 14.8277C252.85 14.8277 253.326 15.3625 253.326 16.2646C253.326 17.1666 252.847 17.7299 252.063 17.7299ZM250.876 10.4062C247.255 10.4062 245.602 13.4478 245.602 16.2646C245.602 19.6764 247.818 22.145 250.876 22.145C251.794 22.145 252.635 21.9203 253.362 21.4962C253.512 21.6798 253.742 21.7969 254.001 21.7969H257.325C257.779 21.7969 258.147 21.4361 258.147 20.993V11.5583C258.147 11.1184 257.779 10.7576 257.325 10.7576H254.001C253.745 10.7576 253.521 10.8715 253.371 11.0487C252.664 10.6088 251.849 10.4062 250.879 10.4062H250.876ZM252.063 18.537C253.285 18.537 254.136 17.6571 254.136 16.2646C254.136 14.872 253.285 14.0238 252.063 14.0238C250.614 14.0238 250 15.1758 250 16.2646C250 17.3533 250.636 18.537 252.063 18.537ZM250.876 11.2101C247.703 11.2101 246.42 13.8877 246.42 16.2646C246.42 19.4485 248.439 21.3411 250.876 21.3411C252.277 21.3411 253.326 20.7398 254.001 19.8789V20.9898H257.325V11.5551H254.001V12.704C253.154 11.6374 252.2 11.2038 250.876 11.2038V11.2101Z" fill="#23325B"/>
<path fill-rule="evenodd" clip-rule="evenodd" d="M252.062 14.9335C251.007 14.9335 250.924 15.9526 250.924 16.2628C250.924 16.573 251.007 17.6237 252.062 17.6237C252.785 17.6237 253.22 17.1142 253.22 16.2628C253.22 15.4114 252.785 14.9335 252.062 14.9335ZM252.062 17.8326C251.067 17.8326 250.712 17.0224 250.712 16.2628C250.712 15.5032 251.064 14.7215 252.062 14.7215C252.907 14.7215 253.431 15.3133 253.431 16.2628C253.431 17.2123 252.907 17.8326 252.062 17.8326ZM252.062 14.1265C253.236 14.1265 254.029 14.9842 254.029 16.2628C254.029 17.5414 253.255 18.4276 252.062 18.4276C250.709 18.4276 250.108 17.342 250.108 16.2628C250.108 15.1835 250.709 14.1265 252.062 14.1265ZM252.062 18.6365C250.565 18.6365 249.894 17.4433 249.894 16.2628C249.894 15.0823 250.562 13.9176 252.062 13.9176C253.367 13.9176 254.244 14.8607 254.244 16.2628C254.244 17.6649 253.367 18.6365 252.062 18.6365ZM250.876 11.3128C252.193 11.3128 253.102 11.7496 253.917 12.7719L254.106 13.0092V11.6641H257.215V20.8868H254.106V19.5733L253.917 19.817C253.201 20.7317 252.12 21.2381 250.876 21.2381C248.313 21.2381 246.525 19.1935 246.525 16.266C246.525 13.8005 247.872 11.316 250.876 11.316V11.3128ZM250.876 21.4438C248.189 21.4438 246.314 19.317 246.314 16.2628C246.314 13.696 247.725 11.1008 250.876 11.1008C252.165 11.1008 253.083 11.4996 253.895 12.4174V11.4552H257.43V21.0957H253.895V20.1683C253.143 20.9944 252.085 21.4438 250.876 21.4438ZM250.876 10.5058C251.835 10.5058 252.628 10.7115 253.313 11.1356L253.393 11.1862L253.45 11.1166C253.588 10.952 253.786 10.8634 254.001 10.8634H257.324C257.718 10.8634 258.041 11.1767 258.041 11.5597V20.9944C258.041 21.3805 257.718 21.6938 257.324 21.6938H254.001C253.786 21.6938 253.578 21.5989 253.444 21.4311L253.387 21.3583L253.307 21.4058C252.593 21.8268 251.771 22.0388 250.876 22.0388C247.878 22.0388 245.707 19.6113 245.707 16.2628C245.707 13.4903 247.325 10.5058 250.876 10.5058ZM250.876 22.2477C247.757 22.2477 245.492 19.7316 245.492 16.2628C245.492 13.389 247.178 10.2969 250.876 10.2969C251.842 10.2969 252.651 10.4994 253.351 10.914C253.521 10.7463 253.754 10.6545 254.001 10.6545H257.324C257.836 10.6545 258.252 11.0596 258.252 11.5597V20.9944C258.252 21.4944 257.836 21.9027 257.324 21.9027H254.001C253.748 21.9027 253.514 21.8046 253.342 21.6305C252.609 22.042 251.781 22.2509 250.876 22.2509V22.2477Z" fill="#23325B"/>
<path fill-rule="evenodd" clip-rule="evenodd" d="M269.653 10.7617H266.195C265.744 10.7617 265.373 11.1225 265.373 11.5624V14.0754H263.825V11.5624C263.825 11.1225 263.457 10.7617 263.006 10.7617H259.542C259.088 10.7617 258.727 11.1225 258.727 11.5624V20.9971C258.727 21.4402 259.088 21.801 259.542 21.801H263.006C263.457 21.801 263.825 21.4402 263.825 20.9971V18.0348H265.373V20.9971C265.373 21.4402 265.744 21.801 266.195 21.801H269.653C270.104 21.801 270.472 21.4402 270.472 20.9971V11.5624C270.472 11.1225 270.104 10.7617 269.653 10.7617ZM269.653 11.5624V20.9971H266.195V17.2277H263.006V20.9971H259.542V11.5624H263.006V14.8793H266.195V11.5624H269.653Z" fill="#23325B"/>
<path fill-rule="evenodd" clip-rule="evenodd" d="M266.299 20.8878H269.548V11.6651H266.299V14.9851H262.898V11.6651H259.649V20.8878H262.898V17.1183H266.299V20.8878ZM269.76 21.0967H266.084V17.3272H263.11V21.0967H259.431V11.4562H263.11V14.7731H266.084V11.4562H269.76V21.0967ZM263.714 17.9254V20.9922C263.714 21.3783 263.397 21.6917 263.004 21.6917H259.54C259.15 21.6917 258.83 21.3783 258.83 20.9922V11.5575C258.83 11.1746 259.146 10.8612 259.54 10.8612H263.004C263.397 10.8612 263.714 11.1746 263.714 11.5575V14.1749H265.48V11.5575C265.48 11.1746 265.8 10.8612 266.196 10.8612H269.654C270.047 10.8612 270.367 11.1746 270.367 11.5575V20.9922C270.367 21.3783 270.047 21.6917 269.654 21.6917H266.196C265.8 21.6917 265.48 21.3783 265.48 20.9922V17.9254H263.714ZM269.654 21.9005H266.196C265.684 21.9005 265.269 21.4923 265.269 20.9922V18.1343H263.932V20.9922C263.932 21.4923 263.519 21.9005 263.01 21.9005H259.546C259.038 21.9005 258.625 21.4923 258.625 20.9922V11.5575C258.625 11.0575 259.038 10.6523 259.546 10.6523H263.01C263.519 10.6523 263.932 11.0575 263.932 11.5575V13.966H265.269V11.5575C265.269 11.0575 265.684 10.6523 266.196 10.6523H269.654C270.166 10.6523 270.578 11.0575 270.578 11.5575V20.9922C270.578 21.4923 270.166 21.9005 269.654 21.9005Z" fill="#23325B"/>
<path fill-rule="evenodd" clip-rule="evenodd" d="M282.126 10.7617H278.803C278.531 10.7617 278.278 10.8978 278.128 11.1162L276.157 13.99V11.5624C276.157 11.1225 275.793 10.7617 275.345 10.7617H271.874C271.426 10.7617 271.059 11.1225 271.059 11.5624V20.9971C271.059 21.4402 271.43 21.801 271.874 21.801H275.242C275.518 21.801 275.773 21.6649 275.927 21.4339L277.849 18.5158V20.9971C277.849 21.4402 278.214 21.801 278.665 21.801H282.129C282.583 21.801 282.945 21.4402 282.945 20.9971V11.5624C282.945 11.1225 282.583 10.7617 282.129 10.7617H282.126ZM282.126 11.5624V20.9971H278.662V15.8003L275.239 20.9971H271.871V11.5624H275.342V16.6232L278.803 11.5624H282.126Z" fill="#23325B"/>
<path fill-rule="evenodd" clip-rule="evenodd" d="M278.767 20.8878H282.024V11.6651H278.86L275.239 16.9601V11.6651H271.983V20.8878H275.188L278.774 15.4441V20.8878H278.767ZM282.232 21.0967H278.553V16.1498L275.297 21.0967H271.769V11.4562H275.45V16.2733L278.748 11.4562H282.235V21.0967H282.232ZM277.952 18.1596L275.834 21.3752C275.703 21.5746 275.479 21.6948 275.239 21.6948H271.871C271.481 21.6948 271.161 21.3815 271.161 20.9954V11.5607C271.161 11.1777 271.481 10.8644 271.871 10.8644H275.342C275.729 10.8644 276.049 11.1777 276.049 11.5607V14.3268L278.217 11.1682C278.352 10.9783 278.569 10.8612 278.803 10.8612H282.126C282.516 10.8612 282.836 11.1746 282.836 11.5575V20.9922C282.836 21.3783 282.516 21.6917 282.126 21.6917H278.662C278.272 21.6917 277.952 21.3783 277.952 20.9922V18.1564V18.1596ZM282.126 21.9005H278.662C278.153 21.9005 277.741 21.4923 277.741 20.9922V18.8654L276.013 21.4859C275.841 21.7455 275.553 21.9005 275.243 21.9005H271.874C271.366 21.9005 270.953 21.4923 270.953 20.9922V11.5575C270.953 11.0575 271.366 10.6523 271.874 10.6523H275.345C275.853 10.6523 276.263 11.0575 276.263 11.5575V13.6432L278.041 11.0543C278.214 10.8043 278.499 10.6555 278.806 10.6555H282.129C282.638 10.6555 283.051 11.0606 283.051 11.5607V20.9954C283.051 21.4954 282.638 21.9037 282.129 21.9037L282.126 21.9005Z" fill="#23325B"/>
<path fill-rule="evenodd" clip-rule="evenodd" d="M288.441 15.1357C288.175 15.1357 288.06 15.085 288.041 15.066C288.031 15.0565 288.006 14.9964 288.006 14.8666C288.006 14.6578 288.006 14.5596 288.438 14.5596H288.789V15.1388H288.438L288.441 15.1357ZM293.079 10.7617H287.532C284.769 10.7617 283.051 12.2556 283.051 14.6514C283.051 16.2212 283.78 17.4967 284.951 18.1234L283.137 20.5129C282.952 20.7566 282.92 21.0826 283.057 21.3579C283.201 21.627 283.48 21.801 283.79 21.801H287.395C287.673 21.801 287.932 21.6618 288.086 21.4276L288.796 20.323V20.9971C288.796 21.4402 289.157 21.801 289.615 21.801H293.082C293.53 21.801 293.895 21.4402 293.895 20.9971V11.5624C293.895 11.1225 293.53 10.7617 293.082 10.7617H293.079ZM288.441 15.9427H289.612V13.7589H288.441C288.07 13.7589 287.193 13.8317 287.193 14.8666C287.193 15.6294 287.651 15.9427 288.441 15.9427ZM293.079 11.5624H287.532C285.572 11.5624 283.873 12.4233 283.873 14.6514C283.873 16.3099 284.82 17.522 286.282 17.7183L283.79 21.0003H287.395L289.34 17.9904H289.615V21.0003H293.082V11.5656L293.079 11.5624Z" fill="#23325B"/>
<path fill-rule="evenodd" clip-rule="evenodd" d="M288.125 14.993C288.154 15.0025 288.249 15.0278 288.441 15.0278H288.685V14.6606H288.441C288.115 14.6606 288.115 14.6796 288.115 14.8632C288.115 14.9297 288.125 14.9708 288.125 14.993ZM288.899 15.2398H288.441C288.208 15.2398 288.026 15.1987 287.965 15.1354C287.923 15.0847 287.904 14.9866 287.904 14.8632C287.904 14.572 287.978 14.4518 288.441 14.4518H288.899V15.2398ZM288.441 13.8599H289.503V15.8348H288.441C287.661 15.8348 287.299 15.5278 287.299 14.8632C287.299 14.1986 287.687 13.8599 288.441 13.8599ZM289.718 16.0469H288.441C287.546 16.0469 287.088 15.6481 287.088 14.8664C287.088 14.0846 287.571 13.651 288.441 13.651H289.718V16.0469ZM289.718 20.8924V17.8826H289.279L287.338 20.8924H284.002L286.474 17.6389L286.295 17.6135C284.888 17.4268 283.976 16.2621 283.976 14.6511C283.976 11.9609 286.461 11.6698 287.53 11.6698H292.971V20.8924H289.714H289.718ZM293.185 21.1013H289.503V18.0946H289.395L287.453 21.1013H283.576L286.09 17.7939C284.67 17.5218 283.765 16.3064 283.765 14.6511C283.765 12.6541 285.172 11.4609 287.533 11.4609H293.185V21.1013ZM288.899 19.9619L287.997 21.3703C287.862 21.5729 287.635 21.6963 287.392 21.6963H283.787C283.522 21.6963 283.279 21.5476 283.151 21.3102C283.032 21.0697 283.055 20.788 283.221 20.5728L285.108 18.0883L285 18.0281C283.845 17.411 283.154 16.145 283.154 14.648C283.154 12.3154 284.83 10.8659 287.53 10.8659H293.076C293.467 10.8659 293.783 11.1792 293.783 11.5622V20.9969C293.783 21.383 293.467 21.6963 293.076 21.6963H289.609C289.215 21.6963 288.896 21.383 288.896 20.9969V19.9619H288.899ZM293.079 21.9052H289.612C289.104 21.9052 288.688 21.4969 288.688 20.9969V20.6867L288.179 21.4843C288.003 21.7469 287.709 21.9052 287.395 21.9052H283.791C283.445 21.9052 283.128 21.7121 282.965 21.4051C282.809 21.0918 282.841 20.7278 283.055 20.4493L284.798 18.1547C283.637 17.4806 282.946 16.1798 282.946 14.6511C282.946 12.1888 284.705 10.6602 287.536 10.6602H293.083C293.588 10.6602 294.004 11.0653 294.004 11.5653V21C294.004 21.5001 293.591 21.9084 293.083 21.9084L293.079 21.9052Z" fill="#23325B"/>
</g>
<defs>
<clipPath id="clip0_3041_37066">
<rect width="343" height="26" fill="white"/>
</clipPath>
</defs>
</svg>
