<svg width="28" height="28" viewBox="0 0 28 28" fill="none" xmlns="http://www.w3.org/2000/svg">
<g clip-path="url(#clip0_1102_91627)">
<path fill-rule="evenodd" clip-rule="evenodd" d="M26.2421 6.488L20.0937 11.6874V10.1178L20.2924 9.94877L20.6467 9.64855V9.16238V7.27558V5.22095L19.1488 6.48603L2.36335 20.6608L0.242188 22.4519H2.93304H5.24446H5.56533L5.8177 22.2376L11.6637 17.2741V19.4312V21.45V22.4519H12.5912H18.763H19.1665H19.6897H20.0937H26.2658H27.1923V21.45V19.4812V10.1087L27.3853 9.94404L27.7396 9.64264V9.15647V7.27558V5.22095L26.2421 6.488Z" fill="#005BA7"/>
<path fill-rule="evenodd" clip-rule="evenodd" d="M27.6631 5.40265V9.82474L27.311 10.1257L27.119 10.2904V22.634H12.6087L11.7927 22.6025L11.6873 19.6129V17.4558L5.8775 22.4193L5.6269 22.6336H0.336772L2.44445 20.8421L19.1255 6.66774L20.7945 5.36601V9.79401L20.4424 10.0942L20.2447 10.2632L20.0644 11.8691L26.1748 6.66971L27.6631 5.40265ZM20.7945 5C20.7207 5 20.6472 5.0264 20.5865 5.07762L18.9179 6.37895L2.23716 20.5537L0.129483 22.3452C0.016255 22.4417 -0.0284683 22.6052 0.0183847 22.753C0.0648828 22.9007 0.193019 23 0.337127 23H5.6269C5.70251 23 5.77598 22.9724 5.83526 22.9216L6.08621 22.7073L11.3504 18.2099V22.634C11.3504 22.8361 11.5013 23 11.6873 23H27.119C27.3053 23 27.4562 22.8361 27.4562 22.634V10.4681L27.52 10.4134L27.8718 10.1127C27.9531 10.0434 28.0003 9.93703 28.0003 9.82474V5.40265C28.0003 5.26239 27.9268 5.13474 27.8107 5.07328C27.7642 5.04846 27.7131 5.03625 27.6634 5.03625C27.5896 5.03625 27.5161 5.06264 27.4558 5.11426L25.9675 6.38131L20.5822 11.0808V10.4409L20.6515 10.3818L21.0029 10.082C21.0841 10.0127 21.1317 9.9063 21.1317 9.79401V5.36641C21.1317 5.22615 21.0582 5.0985 20.9422 5.03703C20.8957 5.01221 20.8449 5 20.7949 5H20.7945Z" fill="#005BA7"/>
<path fill-rule="evenodd" clip-rule="evenodd" d="M12.1254 22.0394V16.3325L5.40233 22.0394H1.58594L20.1834 6.33594V9.49215L19.6283 9.96139V22.0394H12.1254Z" fill="#E1081A"/>
<path fill-rule="evenodd" clip-rule="evenodd" d="M19.8488 7.44746V9.33425L19.2951 9.8027V21.6223H12.7193V15.3855L5.37265 21.6223H3.06124L19.8488 7.44746ZM20.7749 5.39282L19.2766 6.65791L2.4919 20.8327L0.371094 22.6238H5.69352L5.94589 22.4094L11.7922 17.446V22.6238H20.2222V10.2897L20.421 10.121L20.7752 9.82043V5.39282H20.7749Z" fill="white"/>
<path fill-rule="evenodd" clip-rule="evenodd" d="M19.854 7.44556L3.06641 21.62H5.37747L12.7245 15.3832V19.6012V21.62H19.2999V19.6012V9.80041L19.854 9.33235V7.44556Z" fill="#D11D1D"/>
<path fill-rule="evenodd" clip-rule="evenodd" d="M17.7449 21.5704V20.1067H19.3567V19.7868H15.8065V18.2889H19.3567V17.9709H17.7449V16.4702H19.3567V16.1507H15.8065V14.6532H19.3567V14.3325H17.7449V12.8342H19.3567V12.5146H15.8065V11.0147H19.2996V10.696H17.7453V9.22485L17.4503 9.47464V10.696H16.0032L15.5109 11.112V12.5146H13.8483L13.4706 12.8342H13.5721V14.3325H11.6963L11.3165 14.6532H11.6345V16.1507H9.54173L9.16406 16.4702H9.69577V17.9536L9.99144 17.703V16.4702H11.4418L11.9295 16.0581V14.6532H15.5105V16.1507H12.781V16.4702H13.5721V17.9709H12.781V18.2889H15.5105V19.7868H12.781V20.1067H13.5721V21.5704H13.8689V20.1067H17.4503V21.5704H17.7453H17.7449ZM13.8685 14.3329V12.8345H17.4499V14.3329H13.8685ZM15.5105 17.9709H13.8685V16.4702H17.4499V17.9709H15.5105Z" fill="#102757"/>
<path fill-rule="evenodd" clip-rule="evenodd" d="M6.03776 21.0646V20.1761H7.08344L7.45897 19.8562H6.03776H5.74138H5.15998L4.78125 20.1761H5.74138V21.3163L6.03776 21.0646Z" fill="#102757"/>
<path fill-rule="evenodd" clip-rule="evenodd" d="M7.79972 18.2564V19.5688L8.0961 19.3162V18.2564H9.34374L9.72034 17.9385H8.09504H7.79972H7.432L7.05469 18.2564H7.79972Z" fill="#102757"/>
<path fill-rule="evenodd" clip-rule="evenodd" d="M19.3879 22.0394V16.3298L18.0781 17.4526V14.2499L27.4391 6.33594V9.48703L26.8908 9.95312V22.0394H19.3879Z" fill="white"/>
<path fill-rule="evenodd" clip-rule="evenodd" d="M26.8092 7.45102V9.33191L26.2618 9.79681V21.6254H19.6857V15.38L18.3767 16.5036V14.5826L26.8092 7.45102ZM27.7359 5.396L26.2384 6.66266L17.8063 13.7942L17.4492 14.0936V18.5756L18.7593 17.4531V21.625L18.7632 22.7893L27.2017 22.7136L27.1886 21.625V10.2842L27.3817 10.1191L27.7359 9.81809V5.396Z" fill="#005BA7"/>
</g>
<defs>
<clipPath id="clip0_1102_91627">
<rect width="28" height="18" fill="white" transform="translate(0 5)"/>
</clipPath>
</defs>
</svg>
