<svg width="80" height="380" viewBox="0 0 80 380" fill="none" xmlns="http://www.w3.org/2000/svg">
<rect x="0.5" y="0.5" width="79" height="379" rx="4.5" stroke="#9747FF" stroke-dasharray="10 5"/>
<rect x="20" y="20" width="40" height="40" rx="20" fill="#04B7E0"/>
<path d="M50 37L40 33L30 37L40 41L50 37ZM50 37V43" stroke="white" stroke-width="2" stroke-linecap="round" stroke-linejoin="round"/>
<path d="M34 38.6001V44.0001C34 44.7957 34.6321 45.5588 35.7574 46.1214C36.8826 46.684 38.4087 47.0001 40 47.0001C41.5913 47.0001 43.1174 46.684 44.2426 46.1214C45.3679 45.5588 46 44.7957 46 44.0001V38.6001" stroke="white" stroke-width="2" stroke-linecap="round" stroke-linejoin="round"/>
<rect x="20" y="80" width="40" height="40" rx="20" fill="#04B7E0"/>
<path d="M33.2286 88.1193C32.5863 88.2971 32.1872 88.5122 31.6422 88.9986C30.5133 90.0181 30.1532 91.711 30.776 93.0766C31.068 93.7033 31.8855 94.489 32.596 94.8163L33.1897 95.0876L33.3551 95.9387C33.54 96.8741 33.9293 97.7813 34.4354 98.4641L34.7663 98.9131L33.6666 98.9505C32.6739 98.9879 32.5084 99.016 31.9342 99.2872C30.3284 100.054 29.5984 101.785 30.2213 103.384C30.4257 103.908 31.1167 104.693 31.6714 105.021L31.905 105.17L31.5936 105.619C30.4257 107.312 30.5911 109.277 32.0218 110.726C32.995 111.699 34.3381 112.157 35.6422 111.952C36.4208 111.821 37.3259 111.409 37.9196 110.904L38.3673 110.53H40.0607L41.7444 110.539L42.1337 110.913C42.961 111.718 44.4111 112.148 45.5985 111.942C48.1289 111.521 49.7347 109.108 49.0048 106.807C48.8977 106.452 48.6447 105.928 48.45 105.657C48.1289 105.189 48.1191 105.142 48.2749 105.058C48.3722 105.011 48.6544 104.787 48.8977 104.572C50.5912 103.085 50.2895 100.559 48.2943 99.3714C47.8564 99.1095 46.961 98.9318 46.1045 98.9318C45.6569 98.9318 45.2968 98.9037 45.2968 98.8757C45.2968 98.8476 45.4038 98.6886 45.5303 98.5296C46.1045 97.7907 46.7566 96.1164 46.7566 95.3682C46.7566 95.1437 46.8345 95.0782 47.3892 94.835C48.5376 94.3112 49.2773 93.3666 49.5011 92.1226C49.8612 90.121 48.2262 88.1568 46.0656 88.0071C45.2286 87.951 44.2262 88.2316 43.5839 88.6993L43.1362 89.036L42.5814 88.8021C41.7347 88.4467 41.0534 88.3251 39.9439 88.3251C38.8442 88.3345 38.3965 88.4187 37.433 88.8021L36.8199 89.0453L36.5571 88.8021C35.7882 88.1193 34.3478 87.82 33.2286 88.1193ZM35.2043 89.6346C35.3989 89.7281 35.5644 89.8216 35.5644 89.8591C35.5644 89.8871 35.3795 90.0835 35.1653 90.28C34.4257 90.9628 33.4233 92.7025 33.4233 93.3104C33.4233 93.4133 33.3843 93.5162 33.3357 93.5443C33.1994 93.6285 32.6252 93.1982 32.3138 92.7773C32.0607 92.4312 32.0121 92.2722 31.9829 91.7017C31.9537 91.1311 31.9829 90.9628 32.1775 90.6167C32.7712 89.5598 34.0948 89.1295 35.2043 89.6346ZM46.815 89.6533C47.9245 90.2051 48.3917 91.524 47.8466 92.5341C47.6617 92.8895 46.9221 93.6004 46.7469 93.6004C46.7177 93.6004 46.6301 93.404 46.562 93.1514C46.3479 92.3564 45.7152 91.234 45.1021 90.5325C44.742 90.1303 44.5279 89.8123 44.5863 89.7562C44.9756 89.382 46.1532 89.3259 46.815 89.6533ZM41.6276 89.9526C43.2822 90.4483 44.6933 91.8981 45.141 93.5723C45.6861 95.602 44.7225 97.9497 42.8734 99.0627C42.3576 99.3807 41.287 99.7736 40.9561 99.7736C40.7128 99.7736 40.7128 99.7736 40.742 99.0066L40.7712 98.2396L41.18 98.1648C41.7542 98.0713 42.1045 97.8749 42.5133 97.4259C42.9513 96.9208 43.0875 96.5186 43.0388 95.8452C42.9804 95.125 42.5912 94.4983 41.9488 94.1148C41.4817 93.8436 41.4233 93.8342 40.1386 93.8062C39.107 93.7781 38.7274 93.8062 38.4452 93.9184C37.4817 94.3019 36.9756 95.0315 36.9756 96.0323C36.9853 97.1734 37.6958 97.9684 38.8734 98.1742L39.214 98.2303L39.2432 99.016L39.2724 99.8016L38.8539 99.7362C38.1143 99.6333 36.9366 99.0066 36.2651 98.3519C34.1045 96.2754 34.2116 92.955 36.5084 90.9908C37.9001 89.7936 39.798 89.4101 41.6276 89.9526ZM41.141 95.3027C41.6568 95.5646 41.7639 96.1632 41.3551 96.5467C41.1313 96.7712 41.0534 96.7805 40.051 96.7805C39.4671 96.7805 38.9123 96.7525 38.8247 96.7244C38.6398 96.6496 38.3868 96.21 38.3868 95.9387C38.3868 95.8265 38.5133 95.6114 38.669 95.4617C38.9512 95.1998 38.9804 95.1905 39.9439 95.1905C40.5084 95.1905 41.0242 95.2372 41.141 95.3027ZM34.2992 100.606C34.4841 100.7 34.7761 100.952 34.9318 101.167C35.1848 101.513 35.2237 101.644 35.2237 102.196C35.2237 102.729 35.1848 102.888 34.9512 103.216C34.6106 103.721 34.0169 104.02 33.3746 104.011C32.2846 104.001 31.4768 103.244 31.4768 102.234C31.4865 100.802 32.9658 99.9419 34.2992 100.606ZM36.9074 100.559C37.8028 100.999 38.5911 101.186 39.652 101.242C40.9075 101.298 41.8028 101.139 42.8831 100.653C43.3016 100.456 43.6714 100.335 43.7006 100.363C43.7396 100.4 43.6617 100.643 43.5449 100.915C43.2238 101.635 43.1848 102.486 43.4379 103.188C43.5547 103.496 43.6714 103.814 43.7006 103.889C43.7396 103.992 43.5839 104.104 43.1556 104.291C41.5595 105.002 40.5182 106.835 40.7907 108.463C40.8393 108.781 40.8588 109.052 40.8393 109.08C40.8101 109.108 40.4208 109.127 39.9731 109.127H39.1654L39.2237 108.304C39.2919 107.387 39.1459 106.714 38.6982 105.919C38.3673 105.32 37.54 104.609 36.8199 104.282C36.4014 104.095 36.2651 103.992 36.304 103.889C36.8782 102.542 36.8782 101.85 36.2943 100.494C36.197 100.279 36.3527 100.288 36.9074 100.559ZM47.6033 100.625C47.7785 100.728 48.051 100.971 48.197 101.158C48.4306 101.457 48.4598 101.569 48.4598 102.215C48.4598 102.879 48.4403 102.963 48.1581 103.29C47.3892 104.198 46.0948 104.273 45.2773 103.449C44.7225 102.888 44.5766 102.168 44.8977 101.504C45.3941 100.466 46.6496 100.064 47.6033 100.625ZM36.2067 105.554C36.8004 105.844 37.1508 106.162 37.4427 106.676C38.6982 108.893 36.2359 111.418 33.8904 110.315C32.8782 109.838 32.304 108.959 32.3138 107.911C32.3235 107.163 32.5765 106.611 33.1702 106.05C33.9585 105.301 35.2627 105.096 36.2067 105.554ZM46.1337 105.554C46.7566 105.863 47.1167 106.19 47.3892 106.732C47.7299 107.406 47.798 108.023 47.5839 108.706C47.3698 109.436 46.5522 110.24 45.832 110.446C43.9732 110.96 42.2505 109.744 42.2408 107.911C42.2408 106.732 43.0875 105.676 44.2749 105.376C44.7615 105.255 45.7055 105.348 46.1337 105.554Z" fill="white"/>
<rect x="20" y="140" width="40" height="40" rx="20" fill="#04B7E0"/>
<path d="M37 168C37 168.552 37.4477 169 38 169H42C42.5523 169 43 168.552 43 168V163L48 163C48.5523 163 49 162.552 49 162V158C49 157.448 48.5523 157 48 157H43L43 152C43 151.448 42.5523 151 42 151H38C37.4477 151 37 151.448 37 152V157H32C31.4477 157 31 157.448 31 158V162C31 162.552 31.4477 163 32 163H37V168Z" stroke="white" stroke-width="2" stroke-linecap="round" stroke-linejoin="round"/>
<rect x="20" y="200" width="40" height="40" rx="20" fill="#04B7E0"/>
<path d="M34.8291 225.081C41.9002 229.323 47.557 223.666 46.8499 213.06C36.2435 212.353 30.5869 218.01 34.8291 225.081ZM34.8291 225.081C34.829 225.08 34.8292 225.081 34.8291 225.081ZM34.8291 225.081L33 226.909M34.8291 225.081L38.6569 221.252" stroke="white" stroke-width="2" stroke-linecap="round" stroke-linejoin="round"/>
<rect x="20" y="260" width="40" height="40" rx="20" fill="#04B7E0"/>
<path d="M45 285C43.8954 285 43 285.895 43 287C43 288.105 43.8954 289 45 289C46.1046 289 47 288.105 47 287C47 285.895 46.1046 285 45 285ZM45 285H37.2939C36.8329 285 36.6019 285 36.4121 284.918C36.2447 284.846 36.0994 284.729 35.9935 284.581C35.8749 284.414 35.8272 284.191 35.7327 283.751L33.2715 272.265C33.1748 271.814 33.1259 271.588 33.0059 271.42C32.9 271.271 32.7548 271.154 32.5873 271.082C32.3975 271 32.1678 271 31.7065 271H31M34 274H46.8732C47.595 274 47.9555 274 48.1978 274.15C48.41 274.282 48.5653 274.489 48.633 274.729C48.7104 275.003 48.611 275.35 48.411 276.043L47.0264 280.843C46.9068 281.258 46.8469 281.465 46.7256 281.619C46.6185 281.755 46.4772 281.861 46.317 281.926C46.1361 282 45.9211 282 45.4921 282H35.7305M36 289C34.8954 289 34 288.105 34 287C34 285.895 34.8954 285 36 285C37.1046 285 38 285.895 38 287C38 288.105 37.1046 289 36 289Z" stroke="white" stroke-width="2" stroke-linecap="round" stroke-linejoin="round"/>
<rect x="20" y="320" width="40" height="40" rx="20" fill="#04B7E0"/>
<path d="M35.4 335H32.6C32.4409 335 32.2883 335.063 32.1757 335.176C32.0632 335.288 32 335.441 32 335.6V344.4C32 344.479 32.0155 344.557 32.0457 344.63C32.0758 344.702 32.12 344.769 32.1757 344.824C32.2315 344.88 32.2976 344.924 32.3704 344.954C32.4432 344.984 32.5212 345 32.6 345H35.4C35.4788 345 35.5568 344.984 35.6296 344.954C35.7024 344.924 35.7685 344.88 35.8243 344.824C35.88 344.769 35.9242 344.702 35.9543 344.63C35.9845 344.557 36 344.479 36 344.4V335.6C36 335.441 35.9368 335.288 35.8243 335.176C35.7117 335.063 35.5591 335 35.4 335ZM47.4 335H44.6C44.4409 335 44.2883 335.063 44.1757 335.176C44.0632 335.288 44 335.441 44 335.6V344.4C44 344.479 44.0155 344.557 44.0457 344.63C44.0758 344.702 44.12 344.769 44.1757 344.824C44.2315 344.88 44.2976 344.924 44.3704 344.954C44.4432 344.984 44.5212 345 44.6 345H47.4C47.4788 345 47.5568 344.984 47.6296 344.954C47.7024 344.924 47.7685 344.88 47.8243 344.824C47.88 344.769 47.9242 344.702 47.9543 344.63C47.9845 344.557 48 344.479 48 344.4V335.6C48 335.441 47.9368 335.288 47.8243 335.176C47.7117 335.063 47.5591 335 47.4 335Z" stroke="white" stroke-width="2" stroke-linecap="round" stroke-linejoin="round"/>
<path d="M36 340H44M29 342.4V337.6C29 337.441 29.0632 337.288 29.1757 337.176C29.2883 337.063 29.4409 337 29.6 337H31.4C31.5591 337 31.7117 337.063 31.8243 337.176C31.9368 337.288 32 337.441 32 337.6V342.4C32 342.559 31.9368 342.712 31.8243 342.824C31.7117 342.937 31.5591 343 31.4 343H29.6C29.4409 343 29.2883 342.937 29.1757 342.824C29.0632 342.712 29 342.559 29 342.4ZM51 342.4V337.6C51 337.441 50.9368 337.288 50.8243 337.176C50.7117 337.063 50.5591 337 50.4 337H48.6C48.4409 337 48.2883 337.063 48.1757 337.176C48.0632 337.288 48 337.441 48 337.6V342.4C48 342.559 48.0632 342.712 48.1757 342.824C48.2883 342.937 48.4409 343 48.6 343H50.4C50.5591 343 50.7117 342.937 50.8243 342.824C50.9368 342.712 51 342.559 51 342.4Z" stroke="white" stroke-width="2" stroke-linecap="round" stroke-linejoin="round"/>
</svg>
