<svg width="16" height="16" viewBox="0 0 16 16" fill="none" xmlns="http://www.w3.org/2000/svg">
<path d="M9.33333 9.33258V3.99925M9.33333 9.33258L13.4013 11.6572C13.4621 11.692 13.531 11.7103 13.601 11.7101C13.6711 11.7099 13.7398 11.6913 13.8004 11.6562C13.8611 11.6211 13.9114 11.5707 13.9464 11.5101C13.9814 11.4494 13.9999 11.3806 14 11.3106V2.02125C14 1.95115 13.9816 1.88228 13.9467 1.82153C13.9117 1.76078 13.8614 1.71029 13.8007 1.67511C13.7401 1.63993 13.6713 1.6213 13.6012 1.6211C13.5311 1.62089 13.4622 1.6391 13.4013 1.67392L9.33333 3.99925M9.33333 9.33258H4.66667M9.33333 3.99925H4.66667C3.95942 3.99925 3.28115 4.2802 2.78105 4.7803C2.28095 5.2804 2 5.95867 2 6.66592C2 7.37316 2.28095 8.05144 2.78105 8.55153C3.28115 9.05163 3.95942 9.33258 4.66667 9.33258M4.66667 9.33258L5.17133 12.8659C5.22399 13.2097 5.41019 13.5188 5.68946 13.726C5.96873 13.9333 6.31851 14.022 6.66279 13.9728C7.00707 13.9236 7.31803 13.7405 7.5281 13.4634C7.73817 13.1862 7.83037 12.8373 7.78467 12.4926L7.33333 9.33258H4.66667Z" stroke="#212121" stroke-width="1.5"/>
</svg>
