<svg width="32" height="32" viewBox="0 0 32 32" fill="none" xmlns="http://www.w3.org/2000/svg">
<path d="M16.0013 7.99984H12.0013C11.6477 7.99984 11.3085 8.14031 11.0585 8.39036C10.8084 8.64041 10.668 8.97955 10.668 9.33317V22.6665C10.668 23.0201 10.8084 23.3593 11.0585 23.6093C11.3085 23.8594 11.6477 23.9998 12.0013 23.9998C12.3549 23.9998 12.6941 23.8594 12.9441 23.6093C13.1942 23.3593 13.3346 23.0201 13.3346 22.6665V18.6665H16.0013C17.4158 18.6665 18.7723 18.1046 19.7725 17.1044C20.7727 16.1042 21.3346 14.7477 21.3346 13.3332C21.3346 11.9187 20.7727 10.5621 19.7725 9.56193C18.7723 8.56174 17.4158 7.99984 16.0013 7.99984ZM16.0013 15.9998H13.3346V10.6665H16.0013C16.7085 10.6665 17.3868 10.9475 17.8869 11.4476C18.387 11.9477 18.668 12.6259 18.668 13.3332C18.668 14.0404 18.387 14.7187 17.8869 15.2188C17.3868 15.7189 16.7085 15.9998 16.0013 15.9998ZM25.3346 2.6665H6.66797C5.6071 2.6665 4.58969 3.08793 3.83954 3.83808C3.0894 4.58822 2.66797 5.60564 2.66797 6.6665V25.3332C2.66797 26.394 3.0894 27.4115 3.83954 28.1616C4.58969 28.9117 5.6071 29.3332 6.66797 29.3332H25.3346C26.3955 29.3332 27.4129 28.9117 28.1631 28.1616C28.9132 27.4115 29.3346 26.394 29.3346 25.3332V6.6665C29.3346 5.60564 28.9132 4.58822 28.1631 3.83808C27.4129 3.08793 26.3955 2.6665 25.3346 2.6665ZM26.668 25.3332C26.668 25.6868 26.5275 26.0259 26.2774 26.276C26.0274 26.526 25.6883 26.6665 25.3346 26.6665H6.66797C6.31435 26.6665 5.97521 26.526 5.72516 26.276C5.47511 26.0259 5.33464 25.6868 5.33464 25.3332V6.6665C5.33464 6.31288 5.47511 5.97374 5.72516 5.7237C5.97521 5.47365 6.31435 5.33317 6.66797 5.33317H25.3346C25.6883 5.33317 26.0274 5.47365 26.2774 5.7237C26.5275 5.97374 26.668 6.31288 26.668 6.6665V25.3332Z" fill="#212121"/>
</svg>
