<svg width="24" height="24" viewBox="0 0 24 24" fill="none" xmlns="http://www.w3.org/2000/svg">
<path fill-rule="evenodd" clip-rule="evenodd" d="M14.5944 2.89697C13.8706 2.28018 12.9508 1.94141 11.9999 1.94141C11.049 1.94141 10.1292 2.28018 9.4054 2.89697L9.0294 3.21697C8.70918 3.49013 8.31095 3.65531 7.8914 3.68897L7.3984 3.72897C6.45037 3.80442 5.56024 4.21517 4.88767 4.88756C4.2151 5.55994 3.8041 6.44996 3.7284 7.39797L3.6894 7.89097C3.65601 8.31041 3.4912 8.70863 3.2184 9.02897L2.8974 9.40497C2.28034 10.1288 1.94141 11.0488 1.94141 12C1.94141 12.9511 2.28034 13.8711 2.8974 14.595L3.2174 14.971C3.49056 15.2912 3.65573 15.6894 3.6894 16.109L3.7294 16.602C3.80484 17.55 4.2156 18.4401 4.88798 19.1127C5.56037 19.7853 6.45039 20.1963 7.3984 20.272L7.8914 20.311C8.31083 20.3444 8.70905 20.5092 9.0294 20.782L9.4054 21.102C10.1292 21.719 11.0492 22.058 12.0004 22.058C12.9515 22.058 13.8716 21.719 14.5954 21.102L14.9714 20.782C15.2917 20.5092 15.69 20.3444 16.1094 20.311L16.6024 20.271C17.5504 20.1955 18.4406 19.7848 19.1131 19.1124C19.7857 18.44 20.1967 17.55 20.2724 16.602L20.3104 16.109C20.3441 15.6894 20.5092 15.2912 20.7824 14.971L21.1024 14.594C21.7192 13.8702 22.058 12.9504 22.058 11.9995C22.058 11.0485 21.7192 10.1287 21.1024 9.40497L20.7824 9.02897C20.5092 8.70876 20.3441 8.31052 20.3104 7.89097L20.2714 7.39797C20.196 6.44994 19.7852 5.55981 19.1128 4.88724C18.4404 4.21467 17.5504 3.80367 16.6024 3.72797L16.1094 3.68897C15.69 3.65559 15.2917 3.49077 14.9714 3.21797L14.5944 2.89697ZM10.7034 4.41997C11.0652 4.11171 11.5251 3.9424 12.0004 3.9424C12.4757 3.9424 12.9356 4.11171 13.2974 4.41997L13.6744 4.74097C14.315 5.28693 15.1114 5.61692 15.9504 5.68397L16.4434 5.72397C16.9172 5.76191 17.3619 5.96731 17.698 6.30338C18.0341 6.63945 18.2395 7.08422 18.2774 7.55797L18.3174 8.05097C18.3845 8.88996 18.7144 9.68641 19.2604 10.327L19.5804 10.704C19.8887 11.0658 20.058 11.5256 20.058 12.001C20.058 12.4763 19.8887 12.9361 19.5804 13.298L19.2604 13.675C18.7144 14.3155 18.3845 15.112 18.3174 15.951L18.2774 16.444C18.2395 16.9177 18.0341 17.3625 17.698 17.6986C17.3619 18.0346 16.9172 18.24 16.4434 18.278L15.9504 18.318C15.1114 18.385 14.315 18.715 13.6744 19.261L13.2974 19.581C12.9356 19.8892 12.4757 20.0585 12.0004 20.0585C11.5251 20.0585 11.0652 19.8892 10.7034 19.581L10.3264 19.261C9.68584 18.715 8.88938 18.385 8.0504 18.318L7.5574 18.278C7.08346 18.2403 6.63846 18.035 6.30219 17.6989C5.96591 17.3628 5.76036 16.9179 5.7224 16.444L5.6824 15.951C5.61563 15.1121 5.286 14.3157 4.7404 13.675L4.4204 13.298C4.11214 12.9361 3.94283 12.4763 3.94283 12.001C3.94283 11.5256 4.11214 11.0658 4.4204 10.704L4.7404 10.327C5.28636 9.68641 5.61635 8.88996 5.6834 8.05097L5.7234 7.55797C5.76111 7.08404 5.96641 6.63903 6.3025 6.30276C6.63859 5.96649 7.08348 5.76094 7.5574 5.72297L8.0504 5.68397C8.88938 5.61692 9.68584 5.28693 10.3264 4.74097L10.7034 4.41997ZM15.7074 9.70797C15.8029 9.61573 15.8791 9.50538 15.9315 9.38338C15.9839 9.26137 16.0115 9.13015 16.0127 8.99738C16.0138 8.8646 15.9885 8.73292 15.9382 8.61002C15.8879 8.48712 15.8137 8.37547 15.7198 8.28158C15.6259 8.18769 15.5142 8.11343 15.3914 8.06315C15.2685 8.01287 15.1368 7.98757 15.004 7.98872C14.8712 7.98988 14.74 8.01746 14.618 8.06987C14.496 8.12228 14.3856 8.19846 14.2934 8.29397L8.2934 14.294C8.19789 14.3862 8.12171 14.4966 8.0693 14.6186C8.01689 14.7406 7.9893 14.8718 7.98815 15.0046C7.987 15.1374 8.0123 15.269 8.06258 15.3919C8.11286 15.5148 8.18711 15.6265 8.281 15.7204C8.3749 15.8143 8.48655 15.8885 8.60945 15.9388C8.73234 15.9891 8.86402 16.0144 8.9968 16.0132C9.12958 16.0121 9.2608 15.9845 9.3828 15.9321C9.50481 15.8797 9.61515 15.8035 9.7074 15.708L15.7074 9.70797ZM11.0004 9.49997C11.0004 9.8978 10.8424 10.2793 10.5611 10.5606C10.2798 10.8419 9.89822 11 9.5004 11C9.10257 11 8.72104 10.8419 8.43974 10.5606C8.15843 10.2793 8.0004 9.8978 8.0004 9.49997C8.0004 9.10215 8.15843 8.72062 8.43974 8.43931C8.72104 8.15801 9.10257 7.99997 9.5004 7.99997C9.89822 7.99997 10.2798 8.15801 10.5611 8.43931C10.8424 8.72062 11.0004 9.10215 11.0004 9.49997ZM14.5004 16C14.8982 16 15.2798 15.8419 15.5611 15.5606C15.8424 15.2793 16.0004 14.8978 16.0004 14.5C16.0004 14.1021 15.8424 13.7206 15.5611 13.4393C15.2798 13.158 14.8982 13 14.5004 13C14.1026 13 13.721 13.158 13.4397 13.4393C13.1584 13.7206 13.0004 14.1021 13.0004 14.5C13.0004 14.8978 13.1584 15.2793 13.4397 15.5606C13.721 15.8419 14.1026 16 14.5004 16Z" fill="#212121"/>
</svg>
