<svg width="40" height="40" viewBox="0 0 40 40" fill="none" xmlns="http://www.w3.org/2000/svg">
<rect width="40" height="40" rx="20" fill="#04B7E0"/>
<path d="M15.4 15H12.6C12.4409 15 12.2883 15.0632 12.1757 15.1757C12.0632 15.2883 12 15.4409 12 15.6V24.4C12 24.4788 12.0155 24.5568 12.0457 24.6296C12.0758 24.7024 12.12 24.7685 12.1757 24.8243C12.2315 24.88 12.2976 24.9242 12.3704 24.9543C12.4432 24.9845 12.5212 25 12.6 25H15.4C15.4788 25 15.5568 24.9845 15.6296 24.9543C15.7024 24.9242 15.7685 24.88 15.8243 24.8243C15.88 24.7685 15.9242 24.7024 15.9543 24.6296C15.9845 24.5568 16 24.4788 16 24.4V15.6C16 15.4409 15.9368 15.2883 15.8243 15.1757C15.7117 15.0632 15.5591 15 15.4 15ZM27.4 15H24.6C24.4409 15 24.2883 15.0632 24.1757 15.1757C24.0632 15.2883 24 15.4409 24 15.6V24.4C24 24.4788 24.0155 24.5568 24.0457 24.6296C24.0758 24.7024 24.12 24.7685 24.1757 24.8243C24.2315 24.88 24.2976 24.9242 24.3704 24.9543C24.4432 24.9845 24.5212 25 24.6 25H27.4C27.4788 25 27.5568 24.9845 27.6296 24.9543C27.7024 24.9242 27.7685 24.88 27.8243 24.8243C27.88 24.7685 27.9242 24.7024 27.9543 24.6296C27.9845 24.5568 28 24.4788 28 24.4V15.6C28 15.4409 27.9368 15.2883 27.8243 15.1757C27.7117 15.0632 27.5591 15 27.4 15Z" stroke="white" stroke-width="2" stroke-linecap="round" stroke-linejoin="round"/>
<path d="M16 20H24M9 22.4V17.6C9 17.4409 9.06321 17.2883 9.17574 17.1757C9.28826 17.0632 9.44087 17 9.6 17H11.4C11.5591 17 11.7117 17.0632 11.8243 17.1757C11.9368 17.2883 12 17.4409 12 17.6V22.4C12 22.5591 11.9368 22.7117 11.8243 22.8243C11.7117 22.9368 11.5591 23 11.4 23H9.6C9.44087 23 9.28826 22.9368 9.17574 22.8243C9.06321 22.7117 9 22.5591 9 22.4ZM31 22.4V17.6C31 17.4409 30.9368 17.2883 30.8243 17.1757C30.7117 17.0632 30.5591 17 30.4 17H28.6C28.4409 17 28.2883 17.0632 28.1757 17.1757C28.0632 17.2883 28 17.4409 28 17.6V22.4C28 22.5591 28.0632 22.7117 28.1757 22.8243C28.2883 22.9368 28.4409 23 28.6 23H30.4C30.5591 23 30.7117 22.9368 30.8243 22.8243C30.9368 22.7117 31 22.5591 31 22.4Z" stroke="white" stroke-width="2" stroke-linecap="round" stroke-linejoin="round"/>
</svg>
