<svg width="32" height="32" viewBox="0 0 32 32" fill="none" xmlns="http://www.w3.org/2000/svg">
<path d="M26.6666 9.33333H23.7982C23.1348 9.33333 22.6667 8.66334 22.6667 8C22.6667 5.79086 20.8758 4 18.6667 4C16.4575 4 14.6667 5.79086 14.6667 8C14.6667 8.66334 14.1985 9.33333 13.5351 9.33333H10.6667C9.93029 9.33333 9.33333 9.93029 9.33333 10.6667V13.5351C9.33333 14.1985 8.66334 14.6667 8 14.6667C5.79086 14.6667 4 16.4575 4 18.6667C4 20.8758 5.79086 22.6667 8 22.6667C8.66334 22.6667 9.33333 23.1348 9.33333 23.7982V26.6667C9.33333 27.403 9.93029 28 10.6667 28L26.6667 28C27.403 28 28 27.403 28 26.6666V23.7982C28 23.1348 27.33 22.6667 26.6667 22.6667C24.4575 22.6667 22.6667 20.8758 22.6667 18.6667C22.6667 16.4575 24.4575 14.6667 26.6667 14.6667C27.33 14.6667 28 14.1985 28 13.5351L28 10.6667C28 9.93029 27.403 9.33333 26.6666 9.33333Z" stroke="#212121" stroke-width="2.5" stroke-linecap="round" stroke-linejoin="round"/>
</svg>
