<svg width="24" height="24" viewBox="0 0 24 24" fill="none" xmlns="http://www.w3.org/2000/svg">
<path d="M6.99844 20C6.24844 20 5.5941 19.7627 5.03544 19.288C4.47677 18.8133 4.14777 18.2007 4.04844 17.45C3.4151 17.1167 2.9151 16.6417 2.54844 16.025C2.18177 15.4083 1.99844 14.7333 1.99844 14C1.99844 13.1167 2.25244 12.329 2.76044 11.637C3.26844 10.945 3.94777 10.466 4.79844 10.2L2.99844 8.4L2.69844 8.7C2.5151 8.88333 2.28177 8.975 1.99844 8.975C1.7151 8.975 1.48177 8.88333 1.29844 8.7C1.1151 8.51667 1.02344 8.28333 1.02344 8C1.02344 7.71667 1.1151 7.48333 1.29844 7.3L3.29844 5.3C3.48177 5.11667 3.7151 5.025 3.99844 5.025C4.28177 5.025 4.5151 5.11667 4.69844 5.3C4.88177 5.48333 4.97344 5.71667 4.97344 6C4.97344 6.28333 4.88177 6.51667 4.69844 6.7L4.39844 7L5.79844 8.4L6.59844 6.05C6.79844 5.43333 7.1611 4.93767 7.68644 4.563C8.21177 4.18833 8.7991 4.00067 9.44844 4H14.5484C15.1984 4 15.7861 4.18767 16.3114 4.563C16.8368 4.93833 17.1991 5.434 17.3984 6.05L18.7484 10.1C19.6984 10.2833 20.4778 10.7417 21.0864 11.475C21.6951 12.2083 21.9991 13.05 21.9984 14C21.9984 14.7333 21.8151 15.4083 21.4484 16.025C21.0818 16.6417 20.5818 17.1167 19.9484 17.45C19.8484 18.2 19.5194 18.8127 18.9614 19.288C18.4034 19.7633 17.7491 20.0007 16.9984 20C16.3651 20 15.7941 19.8167 15.2854 19.45C14.7768 19.0833 14.4144 18.6 14.1984 18H9.79844C9.58177 18.6 9.2191 19.0833 8.71044 19.45C8.20177 19.8167 7.6311 20 6.99844 20ZM7.39844 10H10.9984V6H9.44844C9.23177 6 9.0401 6.06267 8.87344 6.188C8.70677 6.31333 8.58177 6.484 8.49844 6.7L7.39844 10ZM12.9984 10H16.5984L15.4984 6.7C15.4151 6.48333 15.2901 6.31233 15.1234 6.187C14.9568 6.06167 14.7651 5.99933 14.5484 6H12.9984V10ZM9.79844 16H14.1984C14.4151 15.4 14.7778 14.9167 15.2864 14.55C15.7951 14.1833 16.3658 14 16.9984 14C17.4984 14 17.9651 14.1167 18.3984 14.35C18.8318 14.5833 19.1984 14.9 19.4984 15.3C19.6484 15.1167 19.7694 14.9123 19.8614 14.687C19.9534 14.4617 19.9991 14.2327 19.9984 14C19.9984 13.45 19.8028 12.9793 19.4114 12.588C19.0201 12.1967 18.5491 12.0007 17.9984 12H5.99844C5.44844 12 4.97777 12.196 4.58644 12.588C4.1951 12.98 3.9991 13.4507 3.99844 14C3.99844 14.2333 4.04444 14.4627 4.13644 14.688C4.22844 14.9133 4.3491 15.1173 4.49844 15.3C4.79844 14.9 5.1651 14.5833 5.59844 14.35C6.03177 14.1167 6.49844 14 6.99844 14C7.63177 14 8.20277 14.1833 8.71144 14.55C9.2201 14.9167 9.58244 15.4 9.79844 16ZM6.99844 18C7.28177 18 7.51944 17.9043 7.71144 17.713C7.90344 17.5217 7.9991 17.284 7.99844 17C7.99777 16.716 7.90177 16.4787 7.71044 16.288C7.5191 16.0973 7.28177 16.0013 6.99844 16C6.7151 15.9987 6.47777 16.0947 6.28644 16.288C6.0951 16.4813 5.9991 16.7187 5.99844 17C5.99777 17.2813 6.09377 17.519 6.28644 17.713C6.4791 17.907 6.71644 18.0027 6.99844 18ZM16.9984 18C17.2818 18 17.5194 17.904 17.7114 17.712C17.9034 17.52 17.9991 17.2827 17.9984 17C17.9978 16.7173 17.9018 16.48 17.7104 16.288C17.5191 16.096 17.2818 16 16.9984 16C16.7151 16 16.4778 16.096 16.2864 16.288C16.0951 16.48 15.9991 16.7173 15.9984 17C15.9978 17.2827 16.0938 17.5203 16.2864 17.713C16.4791 17.9057 16.7164 18.0013 16.9984 18Z" fill="#212121"/>
</svg>
