<svg width="24" height="24" viewBox="0 0 24 24" fill="none" xmlns="http://www.w3.org/2000/svg">
<path d="M5.2286 0.119345C4.58627 0.297056 4.18724 0.512184 3.64222 0.998558C2.51327 2.01807 2.15317 3.71102 2.77604 5.0766C3.06801 5.70328 3.88553 6.48896 4.596 6.81632L5.18967 7.08757L5.35512 7.93872C5.54004 8.87405 5.92933 9.78133 6.43542 10.4641L6.76632 10.9131L5.66656 10.9505C4.67386 10.9879 4.50841 11.016 3.9342 11.2872C2.32835 12.0542 1.59842 13.7845 2.2213 15.384C2.42568 15.9078 3.11668 16.6934 3.67142 17.0208L3.905 17.1705L3.59356 17.6194C2.42568 19.3124 2.59113 21.2766 4.02179 22.7263C4.99503 23.6991 6.33809 24.1574 7.64223 23.9516C8.42082 23.8207 9.32593 23.4091 9.91961 22.904L10.3673 22.5299H12.0607L13.7444 22.5393L14.1337 22.9134C14.961 23.7178 16.4111 24.148 17.5985 23.9423C20.1289 23.5214 21.7347 21.1082 21.0048 18.8073C20.8977 18.4519 20.6447 17.9281 20.45 17.6568C20.1289 17.1892 20.1191 17.1424 20.2749 17.0582C20.3722 17.0114 20.6544 16.787 20.8977 16.5718C22.5912 15.0847 22.2895 12.5593 20.2943 11.3714C19.8564 11.1095 18.961 10.9318 18.1045 10.9318C17.6569 10.9318 17.2968 10.9037 17.2968 10.8757C17.2968 10.8476 17.4038 10.6886 17.5303 10.5296C18.1045 9.79068 18.7566 8.11643 18.7566 7.36817C18.7566 7.14369 18.8345 7.07821 19.3892 6.83503C20.5376 6.31124 21.2773 5.36656 21.5011 4.12257C21.8612 2.12096 20.2262 0.156757 18.0656 0.00710487C17.2286 -0.049015 16.2262 0.231585 15.5839 0.699251L15.1362 1.03597L14.5814 0.802137C13.7347 0.446711 13.0534 0.325119 11.9439 0.325119C10.8442 0.334473 10.3965 0.418652 9.43299 0.802137L8.81985 1.04532L8.55708 0.802137C7.78822 0.119345 6.34783 -0.179962 5.2286 0.119345ZM7.20428 1.63458C7.39892 1.72812 7.56437 1.82165 7.56437 1.85906C7.56437 1.88712 7.37946 2.08354 7.16535 2.27996C6.42569 2.96275 5.42325 4.70247 5.42325 5.31044C5.42325 5.41332 5.38432 5.51621 5.33566 5.54427C5.19941 5.62845 4.6252 5.1982 4.31376 4.7773C4.06072 4.43122 4.01206 4.27222 3.98286 3.70167C3.95366 3.13111 3.98286 2.96275 4.17751 2.61668C4.77118 1.55976 6.09478 1.1295 7.20428 1.63458ZM18.815 1.65329C19.9245 2.20514 20.3917 3.52395 19.8466 4.53411C19.6617 4.88954 18.9221 5.60039 18.7469 5.60039C18.7177 5.60039 18.6301 5.40397 18.562 5.15143C18.3479 4.3564 17.7152 3.234 17.1021 2.5325C16.742 2.13031 16.5279 1.8123 16.5863 1.75618C16.9756 1.38204 18.1532 1.32592 18.815 1.65329ZM13.6276 1.9526C15.2822 2.44832 16.6933 3.89809 17.141 5.57233C17.6861 7.602 16.7225 9.94969 14.8734 11.0627C14.3576 11.3807 13.287 11.7736 12.9561 11.7736C12.7128 11.7736 12.7128 11.7736 12.742 11.0066L12.7712 10.2396L13.18 10.1648C13.7542 10.0713 14.1045 9.87486 14.5133 9.4259C14.9513 8.92082 15.0875 8.51863 15.0388 7.84519C14.9804 7.12498 14.5912 6.49831 13.9488 6.11482C13.4817 5.84358 13.4233 5.83422 12.1386 5.80616C11.107 5.7781 10.7274 5.80616 10.4452 5.9184C9.48165 6.30189 8.97557 7.03145 8.97557 8.03225C8.9853 9.17336 9.69577 9.96839 10.8734 10.1742L11.214 10.2303L11.2432 11.016L11.2724 11.8016L10.8539 11.7362C10.1143 11.6333 8.93664 11.0066 8.26511 10.3519C6.10452 8.27544 6.21157 4.95501 8.50841 2.99081C9.90015 1.79359 11.798 1.4101 13.6276 1.9526ZM13.141 7.30269C13.6568 7.56459 13.7639 8.1632 13.3551 8.54669C13.1313 8.77117 13.0534 8.78052 12.051 8.78052C11.4671 8.78052 10.9123 8.75246 10.8247 8.7244C10.6398 8.64957 10.3868 8.20997 10.3868 7.93872C10.3868 7.82648 10.5133 7.61135 10.669 7.4617C10.9512 7.19981 10.9804 7.19045 11.9439 7.19045C12.5084 7.19045 13.0242 7.23722 13.141 7.30269ZM6.29916 12.606C6.48408 12.6996 6.77605 12.9521 6.93177 13.1672C7.18481 13.5133 7.22374 13.6442 7.22374 14.1961C7.22374 14.7292 7.18481 14.8882 6.95123 15.2156C6.6106 15.7207 6.01693 16.02 5.37459 16.0106C4.28456 16.0013 3.47677 15.2437 3.47677 14.2335C3.48651 12.8024 4.96583 11.9419 6.29916 12.606ZM8.90744 12.5593C9.80282 12.9989 10.5911 13.1859 11.652 13.2421C12.9075 13.2982 13.8028 13.1392 14.8831 12.6528C15.3016 12.4564 15.6714 12.3348 15.7006 12.3628C15.7396 12.4003 15.6617 12.6434 15.5449 12.9147C15.2238 13.6349 15.1848 14.486 15.4379 15.1875C15.5547 15.4962 15.6714 15.8142 15.7006 15.889C15.7396 15.9919 15.5839 16.1042 15.1556 16.2912C13.5595 17.0021 12.5182 18.8353 12.7907 20.4628C12.8393 20.7808 12.8588 21.0521 12.8393 21.0801C12.8101 21.1082 12.4208 21.1269 11.9731 21.1269H11.1654L11.2237 20.3038C11.2919 19.3872 11.1459 18.7137 10.6982 17.9187C10.3673 17.3201 9.54005 16.6093 8.81985 16.2819C8.40136 16.0948 8.26511 15.9919 8.30403 15.889C8.87825 14.5422 8.87825 13.85 8.2943 12.4938C8.19698 12.2787 8.3527 12.288 8.90744 12.5593ZM19.6033 12.6247C19.7785 12.7276 20.051 12.9708 20.197 13.1579C20.4306 13.4572 20.4598 13.5694 20.4598 14.2148C20.4598 14.8789 20.4403 14.9631 20.1581 15.2904C19.3892 16.1977 18.0948 16.2725 17.2773 15.4494C16.7225 14.8882 16.5766 14.168 16.8977 13.5039C17.3941 12.4657 18.6496 12.0635 19.6033 12.6247ZM8.20671 17.5539C8.80039 17.8439 9.15075 18.1619 9.44272 18.6763C10.6982 20.8931 8.23591 23.4185 5.8904 22.3148C4.87824 21.8378 4.30403 20.9585 4.31376 19.911C4.32349 19.1627 4.57653 18.6109 5.17021 18.0497C5.95853 17.3014 7.26267 17.0956 8.20671 17.5539ZM18.1337 17.5539C18.7566 17.8626 19.1167 18.19 19.3892 18.7325C19.7299 19.4059 19.798 20.0232 19.5839 20.706C19.3698 21.4356 18.5522 22.24 17.832 22.4457C15.9732 22.9602 14.2505 21.7442 14.2408 19.911C14.2408 18.7325 15.0875 17.6755 16.2749 17.3762C16.7615 17.2546 17.7055 17.3482 18.1337 17.5539Z" fill="#212121"/>
</svg>
