<svg width="32" height="32" viewBox="0 0 32 32" fill="none" xmlns="http://www.w3.org/2000/svg">
<path d="M8.66667 27.9998H27.2941C27.684 27.9998 28.0003 27.684 28.0003 27.2941L28 19.3722M10.6406 27.5616L27.5228 19.6893C27.8762 19.5245 28.0289 19.1045 27.8642 18.7511L24.5163 11.5721C24.3515 11.2188 23.9314 11.0654 23.5781 11.2301L16.0404 14.7453M13.1758 24.5396C12.5087 27.0291 9.94979 28.5064 7.46029 27.8394C4.97078 27.1723 3.49309 24.6137 4.16015 22.1242L8.98128 4.13135C9.08218 3.75478 9.4689 3.53123 9.84547 3.63213L17.4974 5.68211C17.874 5.78301 18.0975 6.16997 17.9966 6.54653L13.1758 24.5396ZM8.66667 23.4666H8.66933L8.66927 23.4693L8.66667 23.4692V23.4666Z" stroke="#212121" stroke-width="2.5" stroke-linecap="round" stroke-linejoin="round"/>
</svg>
