<svg width="16" height="16" viewBox="0 0 16 16" fill="none" xmlns="http://www.w3.org/2000/svg">
<path d="M5.07867 5.808L7.21533 4.256C7.45519 4.08047 7.74693 3.99034 8.044 4C8.40634 4.00904 8.75686 4.13074 9.04683 4.34819C9.33681 4.56564 9.55183 4.86803 9.662 5.21333C9.786 5.602 9.89933 5.86467 10.002 6.00067C10.3121 6.41466 10.7145 6.75066 11.1772 6.98199C11.6398 7.21332 12.1501 7.33362 12.6673 7.33333V8.66667C11.979 8.66732 11.299 8.51537 10.6764 8.22177C10.0538 7.92816 9.50406 7.5002 9.06667 6.96867L8.60133 9.606L9.97533 10.7587L11.4573 14.8307L10.204 15.2867L8.84467 11.5507L6.58467 9.654C6.39908 9.50431 6.25703 9.30759 6.17331 9.08434C6.08959 8.86109 6.06727 8.61948 6.10867 8.38467L6.448 6.46133L5.99667 6.78933L4.57867 8.74133L3.5 7.95733L5.06733 5.8L5.07867 5.808ZM9.00067 3.66667C8.64704 3.66667 8.30791 3.52619 8.05786 3.27614C7.80781 3.02609 7.66733 2.68696 7.66733 2.33333C7.66733 1.97971 7.80781 1.64057 8.05786 1.39052C8.30791 1.14048 8.64704 1 9.00067 1C9.35429 1 9.69343 1.14048 9.94347 1.39052C10.1935 1.64057 10.334 1.97971 10.334 2.33333C10.334 2.68696 10.1935 3.02609 9.94347 3.27614C9.69343 3.52619 9.35429 3.66667 9.00067 3.66667ZM7.02067 12.454L4.878 15.0073L3.85667 14.1507L5.84 11.7867L6.33733 10.3333L7.53133 11.3333L7.02067 12.454Z" fill="#818181"/>
</svg>
