<svg width="16" height="17" viewBox="0 0 16 17" fill="none" xmlns="http://www.w3.org/2000/svg">
<path d="M10.668 8.5H12.0013V11.1667H10.668V8.5Z" fill="#04B7E0"/>
<path d="M13.332 5.16667V3.83333C13.332 3.098 12.734 2.5 11.9987 2.5H3.33203C2.22936 2.5 1.33203 3.39733 1.33203 4.5V12.5C1.33203 13.9673 2.52803 14.5 3.33203 14.5H13.332C14.0674 14.5 14.6654 13.902 14.6654 13.1667V6.5C14.6654 5.76467 14.0674 5.16667 13.332 5.16667ZM3.33203 3.83333H11.9987V5.16667H3.33203C3.16038 5.15899 2.9983 5.0854 2.87955 4.96121C2.7608 4.83703 2.69452 4.67182 2.69452 4.5C2.69452 4.32818 2.7608 4.16297 2.87955 4.03879C2.9983 3.9146 3.16038 3.84101 3.33203 3.83333ZM13.332 13.1667H3.34003C3.03203 13.1587 2.66536 13.0367 2.66536 12.5V6.37667C2.8747 6.452 3.0967 6.5 3.33203 6.5H13.332V13.1667Z" fill="#04B7E0"/>
</svg>
