<?xml version="1.0" standalone="no"?>
<!DOCTYPE svg PUBLIC "-//W3C//DTD SVG 20010904//EN"
 "http://www.w3.org/TR/2001/REC-SVG-20010904/DTD/svg10.dtd">
<svg version="1.0" xmlns="http://www.w3.org/2000/svg"
 width="82.000000pt" height="82.000000pt" viewBox="0 0 82.000000 82.000000"
 preserveAspectRatio="xMidYMid meet">

<g transform="translate(0.000000,82.000000) scale(0.100000,-0.100000)"
fill="#000000" stroke="none">
<path d="M303 795 c-124 -38 -238 -157 -267 -280 -16 -66 -8 -173 20 -241 l26
-65 -34 -100 c-19 -54 -34 -99 -33 -99 1 0 49 15 106 33 l104 33 45 -20 c70
-30 189 -33 269 -6 116 39 185 102 239 217 23 50 27 71 27 153 0 86 -3 101
-31 160 -53 113 -131 181 -243 214 -65 19 -170 20 -228 1z m243 -66 c66 -25
141 -95 174 -164 29 -59 39 -175 20 -239 -26 -93 -116 -187 -212 -222 -69 -26
-173 -22 -239 8 -48 22 -58 24 -90 13 -19 -7 -49 -16 -66 -19 l-32 -7 21 62
c19 57 19 64 5 88 -8 14 -23 53 -32 85 -33 114 3 245 89 324 107 99 226 122
362 71z"/>
<path d="M255 575 c-34 -34 -33 -86 4 -150 92 -160 311 -244 350 -134 11 31 7
36 -48 64 -33 16 -33 16 -62 -11 -25 -24 -31 -26 -57 -15 -31 13 -85 61 -109
98 -13 19 -12 25 3 48 15 23 16 31 4 63 -24 69 -45 78 -85 37z"/>
</g>
</svg>
