<svg width="144" height="80" viewBox="0 0 144 80" fill="none" xmlns="http://www.w3.org/2000/svg">
<path fill-rule="evenodd" clip-rule="evenodd" d="M134.96 6.61378L103.339 29.7223V22.7462L104.362 21.995L106.183 20.6607V18.4999V10.1141V0.982422L98.4801 6.60503L12.1549 69.6041L1.24609 77.5644H15.0848H26.972H28.6222L29.9201 76.6118L59.9852 54.5522V64.1391V73.1115V77.5644H64.7551H96.4958H98.5714H101.262H103.339H135.082H139.846V73.1115V64.3615V22.7059L140.839 21.974L142.661 20.6344V18.4736V10.1141V0.982422L134.96 6.61378Z" fill="#005BA7"/>
<path fill-rule="evenodd" clip-rule="evenodd" d="M142.267 1.78957V21.4433L140.456 22.7811L139.469 23.513V78.3733H64.8448L60.6481 78.2332L60.106 64.9463V55.3593L30.2271 77.419L28.9384 78.3715H1.73197L12.5714 70.4095L98.3599 7.41217L106.943 1.62672V21.3067L105.132 22.641L104.116 23.3922L103.188 30.5295L134.613 7.42093L142.267 1.78957ZM106.943 0C106.563 0 106.186 0.11732 105.873 0.344956L97.292 6.12866L11.5054 69.1278L0.665913 77.0898C0.0835972 77.5188 -0.146409 78.2455 0.0945498 78.9021C0.333683 79.5587 0.992667 80 1.7338 80H28.9384C29.3272 80 29.705 79.8774 30.0099 79.6515L31.3005 78.699L58.3736 58.7108V78.3733C58.3736 79.2716 59.1494 80 60.106 80H139.469C140.427 80 141.203 79.2716 141.203 78.3733V24.3028L141.532 24.0594L143.341 22.7233C143.759 22.4151 144.001 21.9423 144.001 21.4433V1.78957C144.001 1.1662 143.624 0.598857 143.027 0.325694C142.788 0.215379 142.525 0.161096 142.269 0.161096C141.889 0.161096 141.512 0.278416 141.201 0.507803L133.547 6.13916L105.852 27.0256V24.1819L106.208 23.9193L108.015 22.5867C108.433 22.2785 108.677 21.8058 108.677 21.3067V1.62847C108.677 1.0051 108.299 0.437761 107.703 0.164598C107.463 0.0542824 107.202 0 106.945 0L106.943 0Z" fill="#005BA7"/>
<path fill-rule="evenodd" clip-rule="evenodd" d="M62.3552 75.7311V50.3673L27.7795 75.7311H8.15234L103.796 5.93799V19.9656L100.941 22.0511V75.7311H62.3552Z" fill="#E1081A"/>
<path fill-rule="evenodd" clip-rule="evenodd" d="M102.085 10.8773V19.2631L99.2375 21.3451V73.8764H65.4194V46.1574L27.6364 73.8764H15.7491L102.085 10.8773ZM106.848 1.74561L99.1426 7.36821L12.8211 70.3673L1.91406 78.3276H29.2866L30.5845 77.375L60.6513 55.3153V78.3276H104.006V23.5093L105.028 22.7599L106.85 21.4239V1.74561H106.848Z" fill="white"/>
<path fill-rule="evenodd" clip-rule="evenodd" d="M102.102 10.8687L15.7656 73.866H27.6511L65.4359 46.147V64.8936V73.866H99.2522V64.8936V21.3346L102.102 19.2544V10.8687Z" fill="#D11D1D"/>
<path fill-rule="evenodd" clip-rule="evenodd" d="M91.2551 73.6473V67.1422H99.5444V65.7203H81.2863V59.0629H99.5444V57.6498H91.2551V50.98H99.5444V49.5599H81.2863V42.9042H99.5444V41.4789H91.2551V34.8196H99.5444V33.3995H81.2863V26.7333H99.2505V25.3167H91.2569V18.7783L89.7399 19.8885V25.3167H82.2976L79.7657 27.1658V33.3995H71.2154L69.2731 34.8196H69.7952V41.4789H60.1477L58.1945 42.9042H59.8301V49.5599H49.0673L47.125 50.98H49.8595V57.5727L51.3801 56.4591V50.98H58.8389L61.347 49.1484V42.9042H79.7639V49.5599H65.7263V50.98H69.7952V57.6498H65.7263V59.0629H79.7639V65.7203H65.7263V67.1422H69.7952V73.6473H71.3212V67.1422H89.7399V73.6473H91.2569H91.2551ZM71.3194 41.4806V34.8214H89.7381V41.4806H71.3194ZM79.7639 57.6498H71.3194V50.98H89.7381V57.6498H79.7639Z" fill="#102757"/>
<path fill-rule="evenodd" clip-rule="evenodd" d="M31.0558 71.3973V67.4487H36.4336L38.3649 66.0269H31.0558H29.5316H26.5415L24.5938 67.4487H29.5316V72.5162L31.0558 71.3973Z" fill="#102757"/>
<path fill-rule="evenodd" clip-rule="evenodd" d="M40.1011 58.9175V64.7502L41.6254 63.6278V58.9175H48.0418L49.9786 57.5044H41.6199H40.1011H38.21L36.2695 58.9175H40.1011Z" fill="#102757"/>
<path fill-rule="evenodd" clip-rule="evenodd" d="M99.7046 75.7311V50.355L92.9688 55.3455V41.1112L141.111 5.93799V19.9428L138.291 22.0143V75.7311H99.7046Z" fill="white"/>
<path fill-rule="evenodd" clip-rule="evenodd" d="M137.883 10.8932V19.2527L135.068 21.3189V73.8906H101.248V46.133L94.516 51.127V42.5889L137.883 10.8932ZM142.649 1.75977L134.948 7.38938L91.5825 39.085L89.7461 40.4158V60.3357L96.4838 55.347V73.8888L96.5039 79.0632L139.902 78.727L139.834 73.8888V23.485L140.827 22.7513L142.649 21.4135V1.75977Z" fill="#005BA7"/>
</svg>
