<svg width="87" height="48" viewBox="0 0 87 48" fill="none" xmlns="http://www.w3.org/2000/svg">
<path fill-rule="evenodd" clip-rule="evenodd" d="M81.5392 3.96866L62.4353 17.8338V13.6481L63.0529 13.1974L64.1536 12.3968V11.1003V6.06886V0.589844L59.4994 3.96341L7.34466 41.7629L0.753906 46.539H9.11477H16.2967H17.2937L18.0778 45.9675L36.2421 32.7317V38.4839V43.8673V46.539H39.1239H58.3006H59.5546H61.1802H62.4353H81.6131H84.4916V43.8673V38.6173V13.6239L85.0916 13.1848L86.1922 12.381V11.0846V6.06886V0.589844L81.5392 3.96866Z" fill="#005BA7"/>
<path fill-rule="evenodd" clip-rule="evenodd" d="M85.9532 1.07374V12.866L84.8591 13.6687L84.2625 14.1078V47.024H39.1771L36.6416 46.9399L36.314 38.9678V33.2156L18.2622 46.4514L17.4836 47.0229H1.0464L7.59525 42.2457L59.4258 4.4473L64.6115 0.976033V12.784L63.5174 13.5846L62.9031 14.0353L62.3429 18.3177L81.3288 4.45256L85.9532 1.07374ZM64.6115 0C64.3821 0 64.1538 0.070392 63.9652 0.206974L58.7806 3.67719L6.95117 41.4767L0.402323 46.2539C0.0505066 46.5113 -0.0884552 46.9473 0.0571239 47.3413C0.2016 47.7352 0.599737 48 1.0475 48H17.4836C17.7185 48 17.9468 47.9265 18.131 47.7909L18.9107 47.2194L35.2674 35.2265V47.024C35.2674 47.5629 35.7361 48 36.314 48H84.2625C84.8415 48 85.3102 47.5629 85.3102 47.024V14.5817L85.5087 14.4356L86.6016 13.634C86.8542 13.4491 87.0009 13.1654 87.0009 12.866V1.07374C87.0009 0.699718 86.7726 0.359314 86.412 0.195417C86.2675 0.129227 86.1087 0.0966577 85.9543 0.0966577C85.7249 0.0966577 85.4966 0.16705 85.3091 0.304682L80.6847 3.6835L63.952 16.2154V14.5092L64.167 14.3516L65.2589 13.552C65.5114 13.3671 65.6592 13.0835 65.6592 12.784V0.977083C65.6592 0.60306 65.4309 0.262657 65.0703 0.0987589C64.9258 0.0325694 64.7681 0 64.6126 0L64.6115 0Z" fill="#005BA7"/>
<path fill-rule="evenodd" clip-rule="evenodd" d="M37.6733 45.4384V30.2201L16.7839 45.4384H4.92578L62.7107 3.5625V11.9791L60.9858 13.2304V45.4384H37.6733Z" fill="#E1081A"/>
<path fill-rule="evenodd" clip-rule="evenodd" d="M61.6763 6.5259V11.5573L59.9558 12.8065V44.3254H39.524V27.6939L16.6968 44.3254H9.51491L61.6763 6.5259ZM64.5537 1.04688L59.8985 4.42044L7.74591 42.2199L1.15625 46.9961H17.6938L18.4779 46.4245L36.6433 33.1887V46.9961H62.8365V14.1051L63.4541 13.6554L64.5548 12.8538V1.04688H64.5537Z" fill="white"/>
<path fill-rule="evenodd" clip-rule="evenodd" d="M61.6848 6.52148L9.52344 44.3199H16.7042L39.5326 27.6885V38.9365V44.3199H59.9632V38.9365V12.8011L61.6848 11.5529V6.52148Z" fill="#D11D1D"/>
<path fill-rule="evenodd" clip-rule="evenodd" d="M55.1307 44.187V40.2839H60.1388V39.4308H49.1079V35.4364H60.1388V34.5885H55.1307V30.5867H60.1388V29.7346H49.1079V25.7412H60.1388V24.886H55.1307V20.8904H60.1388V20.0384H49.1079V16.0386H59.9612V15.1887H55.1318V11.2656L54.2153 11.9317V15.1887H49.7189L48.1892 16.2981V20.0384H43.0233L41.8499 20.8904H42.1653V24.886H36.3366L35.1566 25.7412H36.1447V29.7346H29.6422L28.4688 30.5867H30.1209V34.5423L31.0395 33.8741V30.5867H35.5459L37.0612 29.4877V25.7412H48.1881V29.7346H39.707V30.5867H42.1653V34.5885H39.707V35.4364H48.1881V39.4308H39.707V40.2839H42.1653V44.187H43.0873V40.2839H54.2153V44.187H55.1318H55.1307ZM43.0862 24.887V20.8915H54.2142V24.887H43.0862ZM48.1881 34.5885H43.0862V30.5867H54.2142V34.5885H48.1881Z" fill="#102757"/>
<path fill-rule="evenodd" clip-rule="evenodd" d="M18.7635 42.8375V40.4683H22.0126L23.1794 39.6152H18.7635H17.8426H16.0361L14.8594 40.4683H17.8426V43.5089L18.7635 42.8375Z" fill="#102757"/>
<path fill-rule="evenodd" clip-rule="evenodd" d="M24.229 35.3518V38.8514L25.1499 38.1779V35.3518H29.0265L30.1966 34.5039H25.1466H24.229H23.0864L21.9141 35.3518H24.229Z" fill="#102757"/>
<path fill-rule="evenodd" clip-rule="evenodd" d="M60.2376 45.4384V30.2127L56.168 33.207V24.6664L85.254 3.5625V11.9654L83.5501 13.2083V45.4384H60.2376Z" fill="white"/>
<path fill-rule="evenodd" clip-rule="evenodd" d="M83.3054 6.53671V11.5524L81.6047 12.7921V44.3351H61.1718V27.6806L57.1045 30.677V25.5541L83.3054 6.53671ZM86.185 1.05664L81.532 4.43441L55.3321 23.4518L54.2227 24.2503V36.2022L58.2934 33.209V44.3341L58.3055 47.4387L84.5251 47.237L84.4843 44.3341V14.0918L85.0843 13.6516L86.185 12.8489V1.05664Z" fill="#005BA7"/>
</svg>
