<svg width="49" height="48" viewBox="0 0 49 48" fill="none" xmlns="http://www.w3.org/2000/svg">
<g filter="url(#filter0_d_1102_127351)">
<rect x="4.5" width="40" height="40" rx="20" fill="#04B7E0"/>
<path d="M21.5 28C21.5 28.5523 21.9477 29 22.5 29H26.5C27.0523 29 27.5 28.5523 27.5 28V23L32.5 23C33.0523 23 33.5 22.5523 33.5 22V18C33.5 17.4477 33.0523 17 32.5 17H27.5L27.5 12C27.5 11.4477 27.0523 11 26.5 11H22.5C21.9477 11 21.5 11.4477 21.5 12V17H16.5C15.9477 17 15.5 17.4477 15.5 18V22C15.5 22.5523 15.9477 23 16.5 23H21.5V28Z" stroke="white" stroke-width="2" stroke-linecap="round" stroke-linejoin="round"/>
</g>
<defs>
<filter id="filter0_d_1102_127351" x="0.5" y="0" width="48" height="48" filterUnits="userSpaceOnUse" color-interpolation-filters="sRGB">
<feFlood flood-opacity="0" result="BackgroundImageFix"/>
<feColorMatrix in="SourceAlpha" type="matrix" values="0 0 0 0 0 0 0 0 0 0 0 0 0 0 0 0 0 0 127 0" result="hardAlpha"/>
<feOffset dy="4"/>
<feGaussianBlur stdDeviation="2"/>
<feComposite in2="hardAlpha" operator="out"/>
<feColorMatrix type="matrix" values="0 0 0 0 0 0 0 0 0 0 0 0 0 0 0 0 0 0 0.25 0"/>
<feBlend mode="normal" in2="BackgroundImageFix" result="effect1_dropShadow_1102_127351"/>
<feBlend mode="normal" in="SourceGraphic" in2="effect1_dropShadow_1102_127351" result="shape"/>
</filter>
</defs>
</svg>
