<svg width="40" height="40" viewBox="0 0 40 40" fill="none" xmlns="http://www.w3.org/2000/svg">
<rect width="40" height="40" rx="20" fill="#04B7E0"/>
<path d="M13.2286 8.11934C12.5863 8.29706 12.1872 8.51218 11.6422 8.99856C10.5133 10.0181 10.1532 11.711 10.776 13.0766C11.068 13.7033 11.8855 14.489 12.596 14.8163L13.1897 15.0876L13.3551 15.9387C13.54 16.8741 13.9293 17.7813 14.4354 18.4641L14.7663 18.9131L13.6666 18.9505C12.6739 18.9879 12.5084 19.016 11.9342 19.2872C10.3284 20.0542 9.59842 21.7845 10.2213 23.384C10.4257 23.9078 11.1167 24.6934 11.6714 25.0208L11.905 25.1705L11.5936 25.6194C10.4257 27.3124 10.5911 29.2766 12.0218 30.7263C12.995 31.6991 14.3381 32.1574 15.6422 31.9516C16.4208 31.8207 17.3259 31.4091 17.9196 30.904L18.3673 30.5299H20.0607L21.7444 30.5393L22.1337 30.9134C22.961 31.7178 24.4111 32.148 25.5985 31.9423C28.1289 31.5214 29.7347 29.1082 29.0048 26.8073C28.8977 26.4519 28.6447 25.9281 28.45 25.6568C28.1289 25.1892 28.1191 25.1424 28.2749 25.0582C28.3722 25.0114 28.6544 24.787 28.8977 24.5718C30.5912 23.0847 30.2895 20.5593 28.2943 19.3714C27.8564 19.1095 26.961 18.9318 26.1045 18.9318C25.6569 18.9318 25.2968 18.9037 25.2968 18.8757C25.2968 18.8476 25.4038 18.6886 25.5303 18.5296C26.1045 17.7907 26.7566 16.1164 26.7566 15.3682C26.7566 15.1437 26.8345 15.0782 27.3892 14.835C28.5376 14.3112 29.2773 13.3666 29.5011 12.1226C29.8612 10.121 28.2262 8.15676 26.0656 8.0071C25.2286 7.95098 24.2262 8.23158 23.5839 8.69925L23.1362 9.03597L22.5814 8.80214C21.7347 8.44671 21.0534 8.32512 19.9439 8.32512C18.8442 8.33447 18.3965 8.41865 17.433 8.80214L16.8199 9.04532L16.5571 8.80214C15.7882 8.11934 14.3478 7.82004 13.2286 8.11934ZM15.2043 9.63458C15.3989 9.72812 15.5644 9.82165 15.5644 9.85906C15.5644 9.88712 15.3795 10.0835 15.1653 10.28C14.4257 10.9628 13.4233 12.7025 13.4233 13.3104C13.4233 13.4133 13.3843 13.5162 13.3357 13.5443C13.1994 13.6285 12.6252 13.1982 12.3138 12.7773C12.0607 12.4312 12.0121 12.2722 11.9829 11.7017C11.9537 11.1311 11.9829 10.9628 12.1775 10.6167C12.7712 9.55976 14.0948 9.1295 15.2043 9.63458ZM26.815 9.65329C27.9245 10.2051 28.3917 11.524 27.8466 12.5341C27.6617 12.8895 26.9221 13.6004 26.7469 13.6004C26.7177 13.6004 26.6301 13.404 26.562 13.1514C26.3479 12.3564 25.7152 11.234 25.1021 10.5325C24.742 10.1303 24.5279 9.8123 24.5863 9.75618C24.9756 9.38204 26.1532 9.32592 26.815 9.65329ZM21.6276 9.9526C23.2822 10.4483 24.6933 11.8981 25.141 13.5723C25.6861 15.602 24.7225 17.9497 22.8734 19.0627C22.3576 19.3807 21.287 19.7736 20.9561 19.7736C20.7128 19.7736 20.7128 19.7736 20.742 19.0066L20.7712 18.2396L21.18 18.1648C21.7542 18.0713 22.1045 17.8749 22.5133 17.4259C22.9513 16.9208 23.0875 16.5186 23.0388 15.8452C22.9804 15.125 22.5912 14.4983 21.9488 14.1148C21.4817 13.8436 21.4233 13.8342 20.1386 13.8062C19.107 13.7781 18.7274 13.8062 18.4452 13.9184C17.4817 14.3019 16.9756 15.0315 16.9756 16.0323C16.9853 17.1734 17.6958 17.9684 18.8734 18.1742L19.214 18.2303L19.2432 19.016L19.2724 19.8016L18.8539 19.7362C18.1143 19.6333 16.9366 19.0066 16.2651 18.3519C14.1045 16.2754 14.2116 12.955 16.5084 10.9908C17.9001 9.79359 19.798 9.4101 21.6276 9.9526ZM21.141 15.3027C21.6568 15.5646 21.7639 16.1632 21.3551 16.5467C21.1313 16.7712 21.0534 16.7805 20.051 16.7805C19.4671 16.7805 18.9123 16.7525 18.8247 16.7244C18.6398 16.6496 18.3868 16.21 18.3868 15.9387C18.3868 15.8265 18.5133 15.6114 18.669 15.4617C18.9512 15.1998 18.9804 15.1905 19.9439 15.1905C20.5084 15.1905 21.0242 15.2372 21.141 15.3027ZM14.2992 20.606C14.4841 20.6996 14.7761 20.9521 14.9318 21.1672C15.1848 21.5133 15.2237 21.6442 15.2237 22.1961C15.2237 22.7292 15.1848 22.8882 14.9512 23.2156C14.6106 23.7207 14.0169 24.02 13.3746 24.0106C12.2846 24.0013 11.4768 23.2437 11.4768 22.2335C11.4865 20.8024 12.9658 19.9419 14.2992 20.606ZM16.9074 20.5593C17.8028 20.9989 18.5911 21.1859 19.652 21.2421C20.9075 21.2982 21.8028 21.1392 22.8831 20.6528C23.3016 20.4564 23.6714 20.3348 23.7006 20.3628C23.7396 20.4003 23.6617 20.6434 23.5449 20.9147C23.2238 21.6349 23.1848 22.486 23.4379 23.1875C23.5547 23.4962 23.6714 23.8142 23.7006 23.889C23.7396 23.9919 23.5839 24.1042 23.1556 24.2912C21.5595 25.0021 20.5182 26.8353 20.7907 28.4628C20.8393 28.7808 20.8588 29.0521 20.8393 29.0801C20.8101 29.1082 20.4208 29.1269 19.9731 29.1269H19.1654L19.2237 28.3038C19.2919 27.3872 19.1459 26.7137 18.6982 25.9187C18.3673 25.3201 17.54 24.6093 16.8199 24.2819C16.4014 24.0948 16.2651 23.9919 16.304 23.889C16.8782 22.5422 16.8782 21.85 16.2943 20.4938C16.197 20.2787 16.3527 20.288 16.9074 20.5593ZM27.6033 20.6247C27.7785 20.7276 28.051 20.9708 28.197 21.1579C28.4306 21.4572 28.4598 21.5694 28.4598 22.2148C28.4598 22.8789 28.4403 22.9631 28.1581 23.2904C27.3892 24.1977 26.0948 24.2725 25.2773 23.4494C24.7225 22.8882 24.5766 22.168 24.8977 21.5039C25.3941 20.4657 26.6496 20.0635 27.6033 20.6247ZM16.2067 25.5539C16.8004 25.8439 17.1508 26.1619 17.4427 26.6763C18.6982 28.8931 16.2359 31.4185 13.8904 30.3148C12.8782 29.8378 12.304 28.9585 12.3138 27.911C12.3235 27.1627 12.5765 26.6109 13.1702 26.0497C13.9585 25.3014 15.2627 25.0956 16.2067 25.5539ZM26.1337 25.5539C26.7566 25.8626 27.1167 26.19 27.3892 26.7325C27.7299 27.4059 27.798 28.0232 27.5839 28.706C27.3698 29.4356 26.5522 30.24 25.832 30.4457C23.9732 30.9602 22.2505 29.7442 22.2408 27.911C22.2408 26.7325 23.0875 25.6755 24.2749 25.3762C24.7615 25.2546 25.7055 25.3482 26.1337 25.5539Z" fill="white"/>
</svg>
